<?xml version="1.0" encoding="UTF-8" standalone="no"?>
<!-- Created with Inkscape (http://www.inkscape.org/) -->

<svg
   width="210mm"
   height="297mm"
   viewBox="0 0 210 297"
   version="1.1"
   id="svg5"
   inkscape:version="1.1.2 (b8e25be8, 2022-02-05)"
   sodipodi:docname="spring flowers.svg"
   xmlns:inkscape="http://www.inkscape.org/namespaces/inkscape"
   xmlns:sodipodi="http://sodipodi.sourceforge.net/DTD/sodipodi-0.dtd"
   xmlns="http://www.w3.org/2000/svg"
   xmlns:svg="http://www.w3.org/2000/svg">
  <sodipodi:namedview
     id="namedview7"
     pagecolor="#ffffff"
     bordercolor="#666666"
     borderopacity="1.0"
     inkscape:pageshadow="2"
     inkscape:pageopacity="0.0"
     inkscape:pagecheckerboard="0"
     inkscape:document-units="mm"
     showgrid="false"
     inkscape:snap-global="false"
     inkscape:zoom="0.25577176"
     inkscape:cx="412.47713"
     inkscape:cy="283.45585"
     inkscape:window-width="1350"
     inkscape:window-height="725"
     inkscape:window-x="0"
     inkscape:window-y="37"
     inkscape:window-maximized="0"
     inkscape:current-layer="layer1" />
  <defs
     id="defs2">
    <inkscape:path-effect
       effect="spiro"
       id="path-effect2003"
       is_visible="true"
       lpeversion="1" />
  </defs>
  <g
     inkscape:label="Layer 1"
     inkscape:groupmode="layer"
     id="layer1">
    <path
       id="path2001"
       style="color:#000000;fill:#a7ac93;stroke-width:1;-inkscape-stroke:none"
       d="m 39.485136,95.923164 c -0.02734,0.171876 -0.05483,0.343855 -0.08217,0.515731 -0.140327,1.191144 -0.800981,2.645731 0.176218,3.656615 0.991156,0.79374 2.382628,0.71113 3.570324,0.99529 4.276344,0.96965 8.347393,2.55973 12.111922,4.85035 6.348378,3.81965 11.808634,9.55543 15.032675,16.34629 3.430164,7.05192 4.749373,14.96001 3.709333,22.72832 -0.934286,6.93699 -3.728357,13.39515 -7.239351,19.41587 -4.726091,-4.08284 -13.434915,-11.04299 -19.690271,-12.73772 -8.805021,-2.38549 -27.299626,1.92236 -27.299626,1.92236 0,0 18.909239,11.89363 29.606978,14.22653 3.997256,0.8717 10.506692,0.57821 15.175301,0.19275 -0.29778,0.46332 -0.598368,0.92391 -0.901752,1.38183 -7.065055,10.57845 -15.73234,20.1534 -21.567677,31.54949 -9.244902,17.97538 -12.354613,39.08106 -8.4615,58.92922 h 2.149224 1.999361 c -2.07029,-11.7286 -1.626589,-26.05845 1.18029,-37.6437 2.284262,-9.46332 6.173187,-18.58193 11.541414,-26.77717 7.308064,-11.22329 16.556664,-21.18544 22.5826,-33.22795 3.462305,-6.79026 5.686594,-14.36502 5.785694,-22.00641 4.682156,0.43094 12.078067,0.87389 16.457392,-0.0811 10.697755,-2.3329 29.606475,-14.22652 29.606475,-14.22652 0,0 -18.49461,-4.30837 -27.299639,-1.92288 -5.938514,1.60889 -14.076592,7.95701 -18.931659,12.09074 -0.03543,-0.38842 -0.06788,-0.7768 -0.11524,-1.16479 -1.317458,-12.3328 -8.067193,-24.05213 -18.316709,-31.1025 -6.120321,-4.323167 -13.343147,-7.033554 -20.77961,-7.910616 z"
       sodipodi:nodetypes="ccccccccscsccccccccccccsccccc" />
    <path
       id="circle851"
       style="fill:#ffaaaa;fill-rule:evenodd;stroke-width:1.2271;stroke-dasharray:7.36258, 1.2271;stroke-dashoffset:9.81678;paint-order:markers fill stroke;stop-color:#000000"
       d="M 22.7284,49.144289 C 15.650576,49.182319 11.719225,59.692014 26.4361,75.89655 10.173013,61.069188 -0.38202018,65.000892 -0.42015718,72.093733 c -0.03141,5.848486 7.08951198,13.839885 24.05027718,15.226493 -1.4e-5,0.0063 -0.0013,0.0127 -0.0013,0.01902 0,0.0061 0.0013,0.01184 0.0013,0.01773 -38.134833,3.116576 -26.5142182,39.629154 4.248287,10.077762 C 11.471306,114.51434 15.427773,125.69405 22.7284,125.7333 c 5.848488,0.0314 13.839884,-7.08951 15.226493,-24.05028 0.0063,2e-5 0.01273,0.001 0.01903,0.001 0.0059,0 0.01187,-0.001 0.01776,-0.001 3.072692,37.59792 38.560793,26.81733 11.240094,-2.974652 29.734379,27.192082 40.450509,-8.277813 2.887465,-11.349484 6e-6,-0.0065 3.19e-4,-0.01313 3.19e-4,-0.01963 0,-0.0074 -6.13e-4,-0.01485 -6.13e-4,-0.02221 C 69.076555,85.929409 76.200316,77.94171 76.168896,72.093721 76.131466,65.129443 65.951304,61.224433 50.187721,75.120376 75.737666,46.126259 41.031673,36.041775 37.993594,73.193918 c -0.0065,-9e-6 -0.01313,-3.16e-4 -0.01966,-3.16e-4 -0.0074,0 -0.01482,6.13e-4 -0.02219,6.13e-4 C 36.564113,56.236594 28.576391,49.11287 22.7284,49.144289 Z m 15.14596,31.098836 a 7.1957578,7.1957578 0 0 1 7.195679,7.195681 7.1957578,7.1957578 0 0 1 -7.195679,7.195682 7.1957578,7.1957578 0 0 1 -7.195678,-7.195682 7.1957578,7.1957578 0 0 1 7.195678,-7.195681 z" />
    <path
       id="path2001-8"
       style="color:#000000;fill:#a7ac93;stroke-width:1;-inkscape-stroke:none"
       d="m 153.68524,141.45894 c 0.0273,0.17188 0.0548,0.34386 0.0822,0.51574 0.14033,1.19114 0.80098,2.64573 -0.17621,3.65661 -0.99116,0.79374 -2.38263,0.71113 -3.57033,0.99529 -4.27634,0.96965 -8.34739,2.55973 -12.11192,4.85035 -6.34838,3.81965 -11.80863,9.55543 -15.03268,16.34629 -3.43016,7.05192 -4.74937,14.96001 -3.70933,22.72832 0.93429,6.93699 3.72836,13.39515 7.23935,19.41587 4.72609,-4.08284 13.43492,-11.04299 19.69027,-12.73772 8.80502,-2.38549 27.29963,1.92236 27.29963,1.92236 0,0 -18.90924,11.89363 -29.60698,14.22653 -3.99725,0.8717 -10.50669,0.57821 -15.1753,0.19275 0.29778,0.46332 0.59837,0.92391 0.90175,1.38183 7.06506,10.57845 15.73234,20.1534 21.56768,31.54949 2.95489,5.74536 5.28301,11.8105 6.95604,18.05216 h -3.82342 c -2.28426,-9.46332 -6.17318,-15.34857 -11.54141,-23.54381 -7.30806,-11.22329 -16.55666,-21.18544 -22.5826,-33.22795 -3.46231,-6.79026 -5.6866,-14.36502 -5.7857,-22.00641 -4.68215,0.43094 -12.07806,0.87389 -16.457386,-0.0811 -10.69775,-2.3329 -29.60647,-14.22652 -29.60647,-14.22652 0,0 18.49461,-4.30837 27.29964,-1.92288 5.938506,1.60889 14.076586,7.95701 18.931646,12.09074 0.0354,-0.38842 0.0679,-0.7768 0.11524,-1.16479 1.31746,-12.3328 8.0672,-24.05213 18.31672,-31.1025 6.12032,-4.32317 13.34314,-7.03355 20.77961,-7.91062 z"
       sodipodi:nodetypes="ccccccccscsccccccccccsccccc" />
    <path
       id="circle851-3"
       style="fill:#ffeeaa;fill-rule:evenodd;stroke-width:1.2271;stroke-dasharray:7.36258, 1.2271;stroke-dashoffset:9.81678;paint-order:markers fill stroke;stop-color:#000000"
       d="m 170.44198,94.680066 c 7.07782,0.03803 11.00917,10.547724 -3.7077,26.752264 16.26309,-14.82737 26.81812,-10.89566 26.85626,-3.80282 0.0314,5.84849 -7.08951,13.83989 -24.05028,15.2265 1e-5,0.006 0.001,0.0127 0.001,0.019 0,0.006 -0.001,0.0118 -0.001,0.0177 38.13483,3.11657 26.51422,39.62915 -4.24829,10.07776 16.4071,17.0796 12.45064,28.25931 5.15001,28.29856 -5.84849,0.0314 -13.83988,-7.08951 -15.22649,-24.05028 -0.006,2e-5 -0.0127,0.001 -0.019,0.001 -0.006,0 -0.0119,-0.001 -0.0178,-0.001 -3.0727,37.59792 -38.5608,26.81733 -11.2401,-2.97465 -29.73438,27.19208 -40.45051,-8.27781 -2.88746,-11.34949 -1e-5,-0.007 -3.2e-4,-0.0131 -3.2e-4,-0.0196 0,-0.007 6.1e-4,-0.0149 6.1e-4,-0.0222 -16.95761,-1.38763 -24.08137,-9.37533 -24.04995,-15.22332 0.0374,-6.96428 10.2176,-10.86929 25.98118,3.02665 -25.54995,-28.994114 9.15605,-39.078593 12.19413,-1.92645 0.006,-1e-5 0.0131,-3.2e-4 0.0197,-3.2e-4 0.007,0 0.0148,6.1e-4 0.0222,6.1e-4 1.38763,-16.95762 9.37535,-24.081343 15.22334,-24.049924 z M 155.29602,125.7789 a 7.1957578,7.1957578 0 0 0 -7.19568,7.19569 7.1957578,7.1957578 0 0 0 7.19568,7.19568 7.1957578,7.1957578 0 0 0 7.19568,-7.19568 7.1957578,7.1957578 0 0 0 -7.19568,-7.19569 z" />
  </g>
</svg>
