<?xml version="1.0" encoding="UTF-8" standalone="no"?>
<!-- Created with Inkscape (http://www.inkscape.org/) -->

<svg
   width="210mm"
   height="297mm"
   viewBox="0 0 210 297"
   version="1.1"
   id="svg5"
   xml:space="preserve"
   inkscape:version="1.2.2 (b0a84865, 2022-12-01)"
   sodipodi:docname="monstera leaves.svg"
   xmlns:inkscape="http://www.inkscape.org/namespaces/inkscape"
   xmlns:sodipodi="http://sodipodi.sourceforge.net/DTD/sodipodi-0.dtd"
   xmlns="http://www.w3.org/2000/svg"
   xmlns:svg="http://www.w3.org/2000/svg"><sodipodi:namedview
     id="namedview7"
     pagecolor="#ffffff"
     bordercolor="#666666"
     borderopacity="1.0"
     inkscape:showpageshadow="2"
     inkscape:pageopacity="0.0"
     inkscape:pagecheckerboard="0"
     inkscape:deskcolor="#d1d1d1"
     inkscape:document-units="mm"
     showgrid="false"
     inkscape:zoom="0.40905295"
     inkscape:cx="-81.896488"
     inkscape:cy="405.81543"
     inkscape:window-width="1384"
     inkscape:window-height="724"
     inkscape:window-x="0"
     inkscape:window-y="37"
     inkscape:window-maximized="0"
     inkscape:current-layer="layer1" /><defs
     id="defs2" /><g
     inkscape:label="Layer 1"
     inkscape:groupmode="layer"
     id="layer1"><path
       style="fill:#536c53;stroke-width:0.264583"
       d="m 150.02139,135.59241 c 0.11991,-0.3778 -0.20988,-0.79853 -1.36939,-1.74703 -3.19939,-2.61715 -7.74505,-7.99342 -7.74505,-9.16028 0,-0.90338 1.87737,-4.14116 3.3816,-5.83207 0.85492,-0.961 1.83494,-2.15162 2.17783,-2.64583 0.34289,-0.4942 1.01824,-1.34539 1.50076,-1.89151 1.06721,-1.20787 1.16295,-2.04976 0.23308,-2.04976 -1.11273,0 -1.96054,0.47605 -2.41583,1.35648 -0.24176,0.46753 -1.30644,1.99069 -2.36596,3.38481 -1.05951,1.39411 -2.07481,3.00411 -2.25622,3.57777 l -0.32984,1.04302 -0.62376,-0.77843 c -0.84972,-1.06042 -2.36401,-3.99428 -2.6994,-5.22994 -0.21203,-0.78117 -0.1727,-1.47502 0.17248,-3.04271 0.6105,-2.77272 1.58559,-3.70948 6.22279,-5.97816 4.02505,-1.96919 4.65942,-2.381 4.27305,-2.77393 -0.18634,-0.1895 -0.9244,-0.11399 -2.38125,0.24365 -1.16116,0.28506 -2.25556,0.51969 -2.43201,0.5214 -0.82613,0.008 -3.27134,1.16035 -4.26239,2.00864 -1.34176,1.1485 -2.12513,3.3154 -1.67028,4.62019 0.1527,0.43802 0.16798,0.78263 0.0347,0.78263 -0.37633,0 -1.78932,-2.19638 -2.85039,-4.43069 -0.84777,-1.78516 -0.97263,-2.29995 -0.97829,-4.03335 -0.005,-1.64046 0.12426,-2.26387 0.74322,-3.574501 0.41234,-0.87313 1.2096,-2.88529 1.77168,-4.47147 0.56208,-1.58618 1.3668,-3.31258 1.78827,-3.83645 0.90686,-1.1272 2.2712,-2.1029 3.21501,-2.29919 1.21462,-0.25262 2.2812,-0.82993 3.52975,-1.91054 1.42299,-1.23159 2.38413,-1.51504 3.82325,-1.12753 1.31705,0.35465 2.09329,1.19477 2.3401,2.53268 0.25808,1.39897 0.81052,2.68831 1.58938,3.70945 0.3493,0.45796 0.7105,1.20967 0.80266,1.67046 0.11203,0.56017 0.32199,0.8378 0.63361,0.8378 0.3526,0 0.51155,-0.30339 0.65296,-1.24638 0.49659,-3.31153 2.29758,-5.89963 5.09013,-7.31472 1.89679,-0.96118 5.43013,-1.82091 6.23147,-1.51624 0.35136,0.13359 1.24948,1.01991 1.99582,1.96961 0.74634,0.94969 2.28319,2.42065 3.41522,3.2688 2.52091,1.88872 2.79759,2.5565 3.2108,7.74934 0.19502,2.450921 0.49176,4.209311 0.94554,5.603021 0.75892,2.33091 1.0984,5.00365 0.8224,6.47483 l -0.19027,1.01425 -1.01461,-2.11428 c -0.56881,-1.1853 -1.51737,-2.62469 -2.15886,-3.27596 -2.08892,-2.12074 -5.09536,-3.73801 -6.93221,-3.72909 -1.05635,0.005 -3.15383,0.62757 -3.26789,0.96977 -0.048,0.14409 0.42207,0.47233 1.04467,0.72943 3.04182,1.2561 6.18507,2.98846 7.39319,4.07466 0.73735,0.66294 2.27405,2.36689 3.41489,3.78654 l 2.07425,2.5812 -0.23814,1.46314 c -0.13097,0.80473 -0.41813,1.8522 -0.63814,2.32772 -0.22001,0.47551 -0.6448,1.5303 -0.94399,2.34398 -0.34765,0.94547 -1.1396,2.16145 -2.19431,3.36917 l -1.65033,1.88976 -0.29971,-1.17223 c -0.16484,-0.64473 -0.76521,-1.98226 -1.33416,-2.9723 -0.56895,-0.99003 -1.38059,-2.6335 -1.80366,-3.65215 -0.6163,-1.48391 -1.17804,-2.25995 -2.82584,-3.90387 -3.21603,-3.20846 -5.08845,-4.16449 -6.58631,-3.36286 -1.15432,0.61777 -0.30348,2.03915 3.75096,6.2662 2.08698,2.17582 2.79782,3.13138 3.64127,4.89479 1.1707,2.4476 1.75366,4.84061 1.50375,6.17277 -0.12195,0.65002 -0.60233,1.26554 -1.81031,2.31956 -2.23752,1.95235 -2.97225,2.27406 -5.81154,2.54464 -2.66305,0.25379 -5.07815,1.04074 -7.82485,2.54967 -1.39954,0.76886 -1.64748,0.83784 -1.51537,0.42162 z"
       id="path411"
       inkscape:export-filename="monstera leaves.png"
       inkscape:export-xdpi="96"
       inkscape:export-ydpi="96" /><path
       id="path355"
       style="fill:#93ac93;stroke-width:0.264583"
       d="M 111.06919 82.897266 C 109.28273 82.897266 107.26904 83.632884 105.56358 84.908512 C 104.73049 85.531642 103.70308 86.184557 103.28052 86.359587 C 102.78272 86.565776 102.2848 87.127099 101.86613 87.953288 C 101.51074 88.654627 100.86266 89.593709 100.42591 90.040499 C 99.473662 91.014638 99.364806 92.46649 100.09467 94.462968 C 100.34933 95.159577 100.55769 96.146269 100.55769 96.655599 C 100.55769 99.784156 97.829403 94.145325 97.579574 90.500419 C 97.406004 87.968172 97.000955 87.365659 94.758557 86.30481 C 93.092299 85.51653 90.371228 85.222271 90.371228 85.83042 C 90.371228 85.99672 89.95315 86.092396 89.379041 86.057796 C 87.612552 85.951446 87.452192 86.040149 84.992745 88.475736 C 83.657976 89.797555 82.239425 91.193837 81.839966 91.578906 C 80.815917 92.566085 80.283817 93.825001 80.118107 95.652559 L 79.974963 97.229207 L 79.089746 97.062809 C 78.248637 96.905019 78.179451 96.953187 77.691382 98.032776 C 76.889213 99.807134 76.348311 101.8119 76.348311 103.01128 C 76.348311 103.61453 76.437609 104.06259 76.546749 104.00709 C 79.355446 102.5792 79.980919 102.39141 82.671956 102.17102 C 84.214315 102.0447 85.922798 101.87055 86.468107 101.78345 C 87.604716 101.6019 88.783728 101.82947 88.783728 102.23045 C 88.783728 102.92129 86.76418 103.33377 83.062113 103.39937 C 79.703557 103.45885 79.176549 103.53323 77.85933 104.13628 C 77.053201 104.50534 76.239798 105.08648 76.051689 105.42767 C 75.333459 106.73041 74.757327 108.8507 74.894137 109.68736 C 75.196446 111.53615 75.342811 112.00143 75.623291 112.00143 C 75.783611 112.00143 77.131679 111.28148 78.618457 110.40153 C 81.008875 108.98676 81.669158 108.7291 84.325085 108.17634 C 85.977024 107.83254 87.655944 107.46828 88.056124 107.36657 C 89.920212 106.8928 88.371296 108.30645 83.492061 111.53221 C 80.674384 113.39504 78.155348 115.7537 77.236629 117.38973 C 76.81886 118.1337 77.345852 119.78878 78.640161 121.79773 C 79.70486 123.45031 80.052478 123.71454 80.052478 122.87157 C 80.052478 122.59289 80.570413 121.90829 81.203312 121.35022 C 81.836212 120.79215 82.565869 119.9191 82.824919 119.40977 C 83.742318 117.60609 85.160412 115.93405 86.593681 114.96611 C 90.583287 112.27175 91.429561 111.86015 91.429561 112.61483 C 91.429561 112.95268 88.521612 115.81718 84.997396 118.95088 C 83.930097 119.89991 83.061171 120.94981 82.698311 121.729 C 82.377492 122.4179 81.92989 123.19011 81.70354 123.44518 C 81.079331 124.14855 81.688602 125.816 83.13446 127.36174 L 84.323018 128.63246 L 85.988033 126.99742 C 86.906832 126.09546 87.971119 124.72052 88.362048 123.9299 C 89.875927 120.86817 92.624251 117.85277 93.29198 118.52093 C 93.65484 118.884 92.868078 120.21729 90.71746 122.88346 C 89.617491 124.24711 88.302547 125.98258 87.795158 126.74007 C 86.908079 128.06441 86.870557 128.2188 86.821057 130.76514 L 86.769381 133.41356 L 87.710409 134.45433 C 88.547258 135.38 90.988867 136.87227 91.666756 136.87227 C 91.828646 136.87227 91.832168 136.55822 91.676058 136.01392 C 91.032089 133.7685 91.712433 131.46488 93.440291 130.04064 C 95.293199 128.51331 95.704028 129.19162 94.274349 131.41833 C 93.50175 132.62167 93.404952 132.99286 93.321952 135.07599 L 93.229451 137.39471 L 93.983411 137.68617 C 94.58802 137.91993 97.939257 138.08166 99.566016 137.95592 C 100.08252 137.916 99.969494 135.58001 99.366545 133.82749 C 98.494965 131.29423 99.23729 131.57356 100.67396 134.31945 C 101.51595 135.92872 101.72163 137.52201 101.21036 138.47734 L 101.20984 138.47734 C 100.96118 138.94191 101.02964 138.98893 101.95088 138.98893 C 103.3925 138.98893 103.60071 138.65406 103.59471 136.35602 C 103.58926 134.40525 103.17913 132.84479 101.89869 129.90267 C 101.20708 128.31352 101.88237 129.02128 102.9379 130.992 C 104.05824 133.08374 104.50272 134.79429 104.51662 137.0676 C 104.52778 138.89586 104.35186 138.80778 106.51081 138.06547 C 107.39814 137.76039 107.44019 137.68776 107.52109 136.31778 C 107.60198 134.94849 107.65544 134.85591 108.77837 134.1391 C 109.42325 133.72744 110.0034 133.13213 110.0677 132.81618 C 110.57753 130.31171 110.83849 129.46178 111.10123 129.44998 C 111.26862 129.44247 112.17952 129.05551 113.12539 128.59008 C 114.74583 127.79273 114.84975 127.68658 114.92735 126.74782 C 114.99503 125.92907 114.86536 125.60682 114.19975 124.94121 C 113.566 124.30746 113.38998 123.90119 113.38998 123.07259 C 113.38998 120.97905 110.70833 115.30787 108.61818 112.98122 C 107.86049 112.13781 107.30848 111.37998 107.39138 111.29708 C 107.91738 110.77107 113.18423 114.1898 115.25705 116.40271 C 115.92012 117.11059 117.18874 118.24987 118.07651 118.93434 C 119.19324 119.79533 119.78618 120.46796 120.00043 121.11715 C 120.17076 121.63323 120.39651 122.0556 120.50221 122.0556 C 120.8279 122.0556 122.30458 120.38017 122.71757 119.54206 C 123.84891 117.24618 123.40608 115.90504 120.98641 114.29897 C 120.18082 113.76424 119.14041 112.84471 118.67389 112.25568 C 118.20737 111.66665 117.12937 110.71204 116.27869 110.13436 C 115.42801 109.55667 113.9594 108.49972 113.01532 107.78515 C 112.07125 107.07059 111.08495 106.36495 110.82321 106.21729 C 110.48126 106.0244 110.42801 105.86758 110.63356 105.6597 C 110.88865 105.40172 113.1451 106.1735 118.29924 108.28125 C 118.88753 108.52182 119.95977 109.73226 120.89133 111.20768 C 121.31961 111.88602 121.82788 112.25193 122.79095 112.57556 C 123.51408 112.81856 124.2355 113.02688 124.39447 113.03858 C 124.55343 113.05025 125.01115 111.9918 125.41147 110.68678 C 125.97345 108.85482 126.09633 108.05581 125.95097 107.18105 C 125.69526 105.64225 125.15701 104.66761 124.43943 104.44479 C 124.11042 104.34263 123.54336 104.05317 123.17956 103.80142 C 122.2802 103.17906 120.72916 102.70038 118.81962 102.45628 C 117.07104 102.23276 111.64605 100.3853 111.4981 99.962891 C 111.44713 99.817371 112.06045 99.617156 112.86081 99.517957 C 113.66118 99.418727 114.91691 99.257105 115.65134 99.158805 C 116.82041 99.002265 117.113 99.065826 118.00313 99.669885 C 118.56232 100.04936 119.20546 100.35977 119.43199 100.35977 C 119.65852 100.35977 120.29535 100.67259 120.84689 101.05481 C 121.39843 101.43703 122.40754 101.85394 123.08964 101.98137 C 123.77175 102.1088 124.52675 102.39129 124.76758 102.60924 C 125.00842 102.82719 125.2556 103.0053 125.3169 103.00508 C 125.37818 103.00485 125.42632 101.72494 125.42232 100.16081 C 125.41477 96.796634 124.95882 95.508618 123.22142 93.94362 C 122.00176 92.844991 120.71385 92.640338 119.47539 93.348307 C 119.1116 93.556267 118.37182 93.730881 117.83157 93.735881 C 117.29133 93.741031 116.21977 93.975853 115.45032 94.257812 C 113.71061 94.895322 111.05281 95.41434 110.19792 95.28359 C 109.55968 95.18598 109.56095 95.181318 110.36381 94.748739 C 110.80949 94.508599 111.77453 93.771945 112.50838 93.112146 C 113.78269 91.966437 115.98207 90.939688 116.64818 91.179447 C 116.82063 91.241527 117.19998 91.164235 117.49102 91.007365 C 117.78206 90.850485 118.87711 90.714024 119.92446 90.704024 C 120.97182 90.694204 121.89987 90.615324 121.98687 90.528324 C 122.07383 90.441374 121.81222 90.023192 121.40551 89.599182 C 120.99879 89.175173 120.46905 88.456213 120.22832 88.001864 C 119.66462 86.937925 118.65266 86.285026 117.26984 86.092936 C 115.08454 85.789387 114.54827 85.983303 113.68143 87.392082 C 113.24538 88.100761 112.21928 89.195275 111.40147 89.823975 C 108.06784 92.386762 107.83228 92.510401 107.83528 91.694661 C 107.83628 91.440002 108.23776 90.958716 108.72721 90.625476 C 109.21666 90.292236 110.69225 88.952772 112.00608 87.648914 C 113.31992 86.345045 114.53586 85.278516 114.70824 85.278516 C 115.29983 85.278516 114.80949 84.644303 113.54242 83.771114 C 112.56248 83.095805 111.99991 82.897266 111.06919 82.897266 z M 91.301921 86.491878 C 91.382556 86.491215 91.704043 86.671426 92.35612 87.049984 C 93.614868 87.780722 95.635343 90.220375 95.655143 91.033203 C 95.667983 91.559193 95.010086 91.417518 94.426278 90.76862 C 94.131698 90.4412 93.497808 89.577989 93.017578 88.850391 C 92.53736 88.122781 91.894313 87.247233 91.588725 86.904773 C 91.34707 86.633972 91.230771 86.492463 91.301921 86.491878 z M 86.776615 91.180998 C 87.088549 91.166374 90.958007 92.064625 91.46005 92.273437 C 91.81783 92.422247 92.488411 93.476198 92.488411 93.889876 C 92.488411 93.955816 92.397533 94.009766 92.286873 94.009766 C 92.048815 94.009766 86.677512 91.265632 86.758012 91.185132 C 86.760438 91.182706 86.766553 91.181469 86.776615 91.180998 z M 105.90826 92.985539 C 106.32552 92.984542 106.7456 93.324281 106.65602 93.771537 C 106.42145 94.522045 105.49832 95.320765 104.68353 94.949243 C 103.89914 94.194217 104.91182 93.095695 105.75582 93.002075 C 105.80603 92.991252 105.85702 92.985661 105.90826 92.985539 z M 94.241793 95.188505 C 94.332887 95.186385 94.542184 95.249952 94.905835 95.370923 C 95.395003 95.533643 95.96968 95.829594 96.18276 96.028764 C 96.522938 96.346714 96.522938 96.388662 96.18276 96.373962 C 95.56031 96.347022 94.746593 95.954375 94.367883 95.498047 C 94.19465 95.289316 94.131851 95.191064 94.241793 95.188505 z M 86.156498 95.427767 C 86.549134 95.429625 87.001269 95.565319 87.887142 95.851514 C 89.577958 96.397752 91.165495 97.323702 91.165495 97.763542 C 91.165495 98.04706 91.094969 98.036801 88.784245 97.416793 C 86.857499 96.899843 86.140359 96.889506 83.227995 97.336694 L 82.301953 97.478805 L 83.078133 96.81993 C 83.505133 96.4575 84.369063 95.964548 84.997913 95.72439 C 85.509861 95.528874 85.810056 95.426127 86.156498 95.427767 z M 106.72217 95.757979 C 107.27952 95.759912 107.61489 96.396106 107.16814 96.828198 C 106.51469 97.316848 105.57823 97.227577 104.7998 97.401807 C 104.44275 97.378419 103.04156 97.356738 103.4681 97.049373 C 104.32611 96.28275 105.46854 95.97499 106.57592 95.771415 C 106.62601 95.761957 106.67493 95.757816 106.72217 95.757979 z M 93.974109 98.529903 C 94.855161 98.521176 95.943478 98.797801 95.787435 99.050285 C 95.610185 99.337095 95.660329 99.339904 94.075911 98.957784 C 93.143773 98.732974 93.022024 98.647777 93.515222 98.566077 C 93.654953 98.542934 93.810951 98.531519 93.974109 98.529903 z M 106.67153 99.646631 C 107.61725 99.642759 108.62799 99.854852 108.62799 100.12464 C 108.62799 100.43194 105.26363 100.43145 105.07369 100.12412 C 104.99362 99.994561 105.34389 99.810659 105.85194 99.715361 C 106.09842 99.669118 106.38202 99.647816 106.67153 99.646631 z M 93.27596 101.94727 C 95.093446 101.94727 95.898253 102.16456 95.354903 102.50899 C 94.995475 102.73686 93.106173 102.76248 92.021257 102.55395 C 90.905469 102.33949 91.716524 101.94727 93.27596 101.94727 z M 102.07284 102.25629 C 102.32544 102.25517 102.56514 102.35197 102.79476 102.45111 C 103.29882 102.59176 103.76908 103.09728 103.39266 103.60143 C 102.76907 103.85142 102.03005 103.84119 101.38658 103.67378 C 100.62767 103.27163 101.31006 102.25191 101.99429 102.25991 C 102.0207 102.25759 102.04671 102.25641 102.07284 102.25629 z M 105.06904 103.8009 C 106.18927 103.80302 107.72296 104.27279 108.10245 104.73004 C 108.37963 105.06405 108.29511 105.11931 107.53556 105.10211 C 105.80192 105.06301 103.40356 103.7979 105.06904 103.8009 z M 94.781295 105.9248 C 95.278072 105.92346 95.398828 106.01993 95.398828 106.25966 C 95.398828 106.558 95.040325 106.72426 94.142057 106.84257 C 93.450839 106.93361 92.568817 107.0673 92.182487 107.1392 C 91.796157 107.21112 91.406056 107.15003 91.315356 107.00329 C 91.054548 106.58129 92.158342 106.13627 93.846468 105.98319 C 94.251646 105.94646 94.555487 105.92541 94.781295 105.9248 z M 100.74837 106.24468 C 100.98278 106.23668 101.22872 106.34108 101.42895 106.5413 C 101.82993 106.94231 101.82339 106.97421 101.34213 106.97021 C 101.05628 106.96798 100.64735 106.85556 100.43315 106.7201 C 100.10191 106.51059 100.11497 106.44608 100.51996 106.29067 C 100.59334 106.26251 100.67024 106.24734 100.74837 106.24468 z M 102.82732 108.06524 C 102.97004 108.06559 103.14224 108.07899 103.34408 108.10606 C 104.47221 108.25738 105.71985 108.96606 105.92118 109.57006 C 106.097 110.09749 104.60944 109.92297 103.48877 109.2848 C 102.18436 108.54199 101.9551 108.0631 102.82732 108.06524 z M 95.832393 109.92972 C 96.746638 109.93102 96.953702 110.37971 96.20498 110.98599 C 95.546622 111.51909 93.947485 111.64264 93.663017 111.18236 C 93.373127 110.71332 94.186145 110.11957 95.328031 109.96641 C 95.51441 109.94142 95.682791 109.92951 95.832393 109.92972 z M 101.03363 112.5306 C 101.82484 112.5306 103.73248 114.45106 103.51203 115.02554 C 103.24456 115.72255 102.27679 115.47893 101.15352 114.43229 C 100.23212 113.57377 100.16632 112.5306 101.03363 112.5306 z M 95.74196 115.21467 C 95.772845 115.21364 95.801527 115.21589 95.827226 115.22087 C 96.640504 115.37856 96.487229 115.85541 95.433451 116.44767 C 94.301663 117.08377 93.921422 117.15646 93.689372 116.78099 C 93.483764 116.44831 95.113965 115.23558 95.74196 115.21467 z M 104.3435 116.81302 C 104.87025 116.79961 106.24281 118.04733 106.9914 119.37928 C 107.32793 119.97805 107.5555 120.4681 107.4968 120.4681 C 107.21431 120.4681 104.13008 117.37252 104.13008 117.08898 C 104.13008 116.9022 104.20923 116.81644 104.3435 116.81302 z M 99.914315 118.8806 C 100.31361 118.8806 101.93884 120.15671 102.11108 120.60556 C 102.43919 121.46061 101.41593 121.1977 100.22747 120.12135 C 99.60335 119.5561 99.432825 118.8806 99.914315 118.8806 z M 102.40615 122.87209 C 102.78838 122.86223 103.21136 123.32972 103.82519 124.42186 C 104.15699 125.01223 104.37134 125.49518 104.30164 125.49518 C 103.97664 125.49518 102.00941 122.98279 102.26714 122.89689 C 102.31314 122.88156 102.35921 122.8733 102.40615 122.87209 z " /><path
       style="fill:#6f916f;stroke-width:0.264583"
       d="m 44.324301,138.91381 c -0.805722,-0.61357 -2.651191,-1.75728 -4.101042,-2.54157 -3.765657,-2.03702 -5.392561,-3.13178 -5.719095,-3.84845 -0.224713,-0.49319 -0.158874,-1.00945 0.310937,-2.43812 0.92206,-2.80393 1.338908,-3.4639 4.202639,-6.65379 2.90085,-3.23123 3.375717,-4.28678 1.928514,-4.28678 -0.408072,0 -1.271275,0.33845 -1.918228,0.7521 -1.661606,1.06242 -5.125083,4.7859 -5.930936,6.37617 -0.685851,1.35346 -0.917154,3.23148 -0.557969,4.53031 0.386738,1.39845 -3.545939,-3.39797 -4.739372,-5.7803 l -0.700212,-1.39776 1.095438,-2.04182 c 1.806179,-3.36659 3.940854,-5.223 9.524479,-8.28289 1.67349,-0.91709 3.384169,-2.00626 3.801507,-2.42038 0.731854,-0.72621 0.742141,-0.77135 0.289722,-1.27127 -0.980758,-1.08373 -2.807801,-0.59037 -6.845446,1.84848 -3.479796,2.1019 -6.584749,5.69046 -7.722623,8.92546 -0.265112,0.75372 -0.573635,1.31378 -0.685608,1.24457 -0.320415,-0.19802 -1.897769,-3.00319 -2.547841,-4.53109 -0.784845,-1.84464 -1.163692,-3.92889 -0.950214,-5.22762 0.141115,-0.8585 0.537649,-1.41678 2.100035,-2.95664 2.684087,-2.6454 5.009034,-3.72227 12.957343,-6.0016 1.30158,-0.37326 1.307653,-0.37982 0.376569,-0.40692 -1.628937,-0.0474 -9.265991,1.55669 -10.74704,2.25734 -0.767842,0.36325 -2.112119,1.37649 -2.987282,2.25166 l -1.591205,1.5912 -0.05662,-2.20398 c -0.118595,-4.61619 0.302909,-6.936711 1.52348,-8.387281 1.034754,-1.22973 2.678424,-1.45802 9.182622,-1.27534 5.318725,0.14939 6.372904,0.0177 4.894792,-0.61123 -0.808689,-0.34412 -5.606459,-1.496 -7.077604,-1.69923 -1.347102,-0.18609 -3.008275,0.23217 -5.676294,1.42923 -0.945064,0.42402 -1.769671,0.68783 -1.83246,0.58623 -0.164048,-0.26543 0.963262,-3.6816 1.663972,-5.04245 0.900264,-1.7484 2.604749,-3.22815 5.15362,-4.47414 1.265337,-0.61855 2.898572,-1.53596 3.629412,-2.03869 1.567773,-1.07844 2.625978,-1.32148 4.849644,-1.11383 3.327736,0.31075 6.591644,2.0609 7.947104,4.26133 0.723942,1.17524 0.810255,1.5527 0.8924,3.9026 0.08097,2.31621 0.144301,2.60153 0.577482,2.60153 0.516353,0 0.649864,-0.29103 0.912696,-1.98949 0.25676,-1.65923 1.191562,-3.06211 2.634906,-3.95427 1.218639,-0.75327 1.456532,-0.80193 3.833292,-0.78407 3.21361,0.0242 4.227795,0.43039 5.301562,2.12355 0.434834,0.68566 0.974254,1.87838 1.19871,2.65048 0.27236,0.93689 0.839633,1.89696 1.705503,2.88644 2.37114,2.70963 2.98428,4.798051 2.73528,9.316721 l -0.14758,2.67836 -2.04491,-1.80195 c -2.759613,-2.43173 -5.53991,-4.03563 -7.262414,-4.18953 -1.842937,-0.16467 -1.348917,0.2827 1.701938,1.54122 4.602976,1.8988 7.105976,3.77646 7.703606,5.77898 0.29733,0.9963 0.28163,1.47256 -0.11154,3.38263 -0.50091,2.4335 -1.95628,6.7026 -2.28496,6.7026 -0.11357,0 -0.2822,-0.37855 -0.37474,-0.84122 -0.29486,-1.47434 -1.728172,-3.32413 -4.966974,-6.41025 -3.270282,-3.11612 -5.077542,-4.34981 -5.906254,-4.03181 -0.451633,0.17331 -0.450453,0.20767 0.02524,0.73506 0.274471,0.30429 1.705018,1.48483 3.178998,2.62342 4.356711,3.36538 7.23534,6.9797 7.23975,9.09 0.002,1.12876 -1.17872,3.48613 -2.962213,5.9124 -1.139481,1.55016 -1.654614,1.73229 -1.919097,0.67851 -0.332168,-1.32346 -5.031552,-9.68658 -6.096735,-10.84987 -1.293291,-1.41242 -2.510491,-1.83799 -3.338719,-1.16733 -0.509699,0.41273 -0.53811,0.558 -0.267777,1.36922 0.166333,0.49912 1.324536,2.09812 2.573787,3.55333 3.090053,3.59949 3.685599,4.51058 4.463833,6.8289 1.008648,3.00471 0.938911,3.46394 -0.778621,5.1275 -1.048419,1.01547 -2.345658,1.84674 -4.696354,3.00941 -1.7863,0.88351 -3.652687,1.93732 -4.147529,2.3418 -0.77779,0.63576 -0.903282,0.90224 -0.926042,1.96644 -0.01447,0.67706 -0.02633,1.22705 -0.02633,1.22219 0,-0.005 -0.659225,-0.51084 -1.464945,-1.12441 z"
       id="path353" /><path
       style="fill:#000000;stroke-width:0.264583"
       d="m 14.534007,146.92635 c 0,-1.52797 0.04373,-2.15304 0.09718,-1.38906 0.05345,0.76398 0.05345,2.01414 0,2.77813 -0.05345,0.76398 -0.09718,0.1389 -0.09718,-1.38907 z"
       id="path248" /></g></svg>
