<?xml version="1.0" encoding="UTF-8" standalone="no"?>
<!-- Created with Inkscape (http://www.inkscape.org/) -->

<svg
   width="210mm"
   height="297mm"
   viewBox="0 0 210 297"
   version="1.1"
   id="svg5"
   inkscape:version="1.1.2 (b8e25be8, 2022-02-05)"
   sodipodi:docname="monoflower bunch.svg"
   xmlns:inkscape="http://www.inkscape.org/namespaces/inkscape"
   xmlns:sodipodi="http://sodipodi.sourceforge.net/DTD/sodipodi-0.dtd"
   xmlns="http://www.w3.org/2000/svg"
   xmlns:svg="http://www.w3.org/2000/svg">
  <sodipodi:namedview
     id="namedview7"
     pagecolor="#ffffff"
     bordercolor="#666666"
     borderopacity="1.0"
     inkscape:pageshadow="2"
     inkscape:pageopacity="0.0"
     inkscape:pagecheckerboard="0"
     inkscape:document-units="mm"
     showgrid="false"
     inkscape:snap-nodes="false"
     inkscape:zoom="0.39070148"
     inkscape:cx="181.72442"
     inkscape:cy="504.22128"
     inkscape:window-width="1378"
     inkscape:window-height="730"
     inkscape:window-x="0"
     inkscape:window-y="25"
     inkscape:window-maximized="0"
     inkscape:current-layer="layer1" />
  <defs
     id="defs2" />
  <g
     inkscape:label="Layer 1"
     inkscape:groupmode="layer"
     id="layer1">
    <path
       style="fill:#ffcb76;fill-opacity:1;stroke-width:0.123564"
       d="m 102.00032,226.71424 c -1.4256,-0.97624 -2.655317,-2.20175 -3.889079,-3.40286 -1.844681,-1.82409 -3.582593,-3.77075 -5.020071,-5.93599 -1.368111,-1.99176 -2.55907,-4.11171 -3.447667,-6.36175 -0.928727,-2.29858 -1.677062,-4.69438 -1.952432,-7.16602 -0.09722,-0.91761 -0.08033,-1.86287 0.204161,-2.74818 0.101003,-0.21207 0.05473,-0.89533 -0.278676,-0.5484 -0.47106,0.74697 -0.514841,1.66434 -0.907116,2.44727 -0.891279,2.07214 -2.006186,4.04273 -3.229296,5.93556 -1.723385,2.59881 -3.762334,5.01992 -6.215486,6.95966 -2.441639,1.87776 -5.298029,3.13927 -8.214068,4.0823 -1.110528,0.34522 -2.227397,0.68619 -3.369099,0.91072 -0.295644,-0.0237 -0.991409,0.25038 -0.821607,-0.25903 0.07939,-1.27024 0.277495,-2.53027 0.575858,-3.76721 0.614874,-2.67178 1.447347,-5.29624 2.509578,-7.82415 0.897971,-2.05836 2.006579,-4.02293 3.25886,-5.88567 1.629045,-2.35221 3.546998,-4.5139 5.739835,-6.3551 0.905744,-0.75501 1.898763,-1.43459 3.024376,-1.81373 0.245606,-0.0583 0.678603,-0.38567 0.222059,-0.48103 -0.543828,-0.0278 -1.09306,-0.0169 -1.633869,-0.1051 -1.532938,-0.22467 -3.002532,-0.74544 -4.451111,-1.27768 -4.985036,-1.92237 -9.364319,-5.21109 -12.936489,-9.15308 -1.485714,-1.63895 -2.877904,-3.36978 -4.088446,-5.22277 -0.405455,-0.64052 -0.81115,-1.28926 -1.078595,-2.00207 0.01798,-0.45744 0.649421,-0.34767 0.961946,-0.48318 1.31688,-0.27144 2.6572,-0.41277 4.000646,-0.44976 1.713806,-0.0738 3.434074,-0.13749 5.147001,-0.0435 0.529332,0.0562 0.50258,0.63749 0.541566,1.03449 0.195979,1.54526 0.475433,3.08786 0.947101,4.57445 0.172983,0.47194 0.371358,0.97403 0.758931,1.31045 0.406285,0.15731 0.743086,-0.25015 1.080431,-0.41943 1.565696,-1.02926 3.030376,-2.20147 4.479998,-3.38591 0.310991,-0.23858 0.695957,-0.64806 1.08593,-0.2829 2.658717,1.38812 5.097401,3.16672 7.355128,5.13383 0.719615,0.64752 1.451976,1.2905 2.05053,2.05586 0.227664,0.24405 0.477714,0.65156 0.869812,0.50627 0.198176,-0.25365 -0.139269,-0.60236 -0.161721,-0.89791 -0.244201,-0.72066 -0.209044,-1.49045 -0.258978,-2.23968 -0.0526,-1.56166 -0.03636,-3.12816 0.09316,-4.6857 0.219594,-1.96794 0.677621,-3.90355 1.237678,-5.80033 0.870699,-2.90995 2.118788,-5.7073 3.729658,-8.28347 1.243914,-2.03004 2.576432,-4.01838 4.145748,-5.81349 0.305069,-0.33067 0.620631,-0.68711 1.036264,-0.8744 0.423021,0.0204 0.514189,0.56701 0.757538,0.83936 0.36038,0.58054 0.692746,1.18762 0.860894,1.8544 0.259412,0.66366 0.60975,1.28822 0.853895,1.95892 0.803761,2.03676 1.389002,4.16758 1.665783,6.34137 0.167832,1.67805 0.09162,3.36897 0.0042,5.04951 -0.0747,1.34178 -0.286335,2.67277 -0.617844,3.97474 -0.711884,2.97246 -1.705347,5.89217 -3.117077,8.60819 -0.207563,0.40672 -0.473607,0.78236 -0.762868,1.13161 -0.01463,0.28229 -0.466872,0.69721 -0.104444,0.83452 0.381232,-0.0704 0.521987,-0.49753 0.738784,-0.77179 0.479443,-0.64804 1.265446,-0.93397 1.965343,-1.27213 1.207177,-0.51461 2.446873,-0.95226 3.695897,-1.35351 1.52576,-0.48631 3.12632,-0.65797 4.71166,-0.82764 2.2514,-0.20725 4.5199,-0.26705 6.77741,-0.13057 2.18425,0.14863 4.33599,0.57563 6.47336,1.03107 1.22866,0.24921 2.46485,0.49184 3.64045,0.93896 0.75799,0.28086 1.50785,0.60681 2.18745,1.0461 0.43652,0.29969 0.004,0.68883 -0.22934,0.94581 -0.96535,1.10645 -2.04277,2.10928 -3.12529,3.09899 -2.32853,2.07925 -4.98608,3.84202 -7.95003,4.86822 -2.65919,0.95441 -5.4754,1.39506 -8.28919,1.54101 -2.39042,0.13709 -4.7992,0.14719 -7.177453,-0.15853 -0.552483,-0.0804 -1.097249,-0.20504 -1.639726,-0.3345 -0.561319,0.0169 -0.175674,0.68559 0.109873,0.84567 1.892831,2.00967 3.389923,4.35511 4.687406,6.782 1.06175,2.0352 1.98947,4.15079 2.64278,6.35413 0.83354,2.80556 0.99289,5.77374 0.73833,8.67801 -0.20701,2.32608 -0.68288,4.62412 -1.34144,6.86252 -0.10649,0.27946 -0.25902,0.74835 -0.64962,0.61871 -0.21644,-0.0756 -0.43848,-0.22923 -0.60921,-0.33649 z"
       id="path4373"
       inkscape:export-filename="/Users/ksergi/Desktop/monoflower bunch.png"
       inkscape:export-xdpi="96"
       inkscape:export-ydpi="96" />
    <path
       style="fill:#f4aabe;fill-opacity:1;stroke-width:0.123564"
       d="m 142.62777,211.57569 c -2.90735,-3.01527 -5.45404,-6.44651 -7.08306,-10.32565 -1.09052,-2.62121 -1.73486,-5.42549 -1.89209,-8.26042 -0.15245,-2.3183 -0.17354,-4.64534 -0.0847,-6.96665 0.0852,-1.82316 0.33674,-3.63727 0.74104,-5.41672 0.0826,-0.48699 0.24422,-0.97745 0.19879,-1.47441 -0.28345,-0.44213 -0.79107,0.16834 -1.05024,0.37617 -1.56968,1.33136 -3.35757,2.37197 -5.14802,3.37402 -1.75361,0.9607 -3.5563,1.85085 -5.44787,2.50609 -0.64096,0.12139 -1.25929,-0.16607 -1.87574,-0.29555 -2.78424,-0.75974 -5.6144,-1.44245 -8.50849,-1.57684 -2.04842,-0.11342 -4.10456,-0.1039 -6.15186,0.0263 -1.82977,0.14173 -3.62053,0.56305 -5.40483,0.9709 -0.31186,0.13117 -0.85429,0.0883 -0.62515,-0.37136 0.29956,-0.61954 0.80369,-1.10883 1.25711,-1.61672 1.19591,-1.21966 2.41371,-2.42052 3.69392,-3.55215 1.3062,-1.13087 2.68057,-2.18293 4.0953,-3.17425 4.69264,-3.25872 10.07007,-5.62437 15.74245,-6.4657 1.09074,-0.15362 2.19017,-0.27893 3.29252,-0.28544 0.79481,0.0205 1.53328,0.33625 2.28609,0.55114 0.42901,0.18654 0.72501,-0.44997 0.25728,-0.60858 -0.47107,-0.25039 -0.96318,-0.45573 -1.47681,-0.60305 -0.72747,-0.23968 -1.38771,-0.63914 -2.06676,-0.98668 -2.75036,-1.50532 -5.3596,-3.27668 -7.74776,-5.30962 -2.60292,-2.22042 -4.88493,-4.85239 -6.50257,-7.87896 -1.39703,-2.57957 -2.31163,-5.38906 -2.98092,-8.23679 -0.27286,-1.11775 -0.51493,-2.25011 -0.64184,-3.39214 0.0205,-0.48138 0.55162,-0.36588 0.87792,-0.35484 1.12428,0.0658 2.20993,0.39687 3.2921,0.68493 2.41555,0.69613 4.80258,1.51521 7.08013,2.58519 1.72072,0.79862 3.42183,1.64846 5.04832,2.62645 3.23144,2.01058 6.16963,4.50084 8.65486,7.3847 1.11907,1.31887 2.19199,2.70316 2.9531,4.26396 0.22941,0.53231 0.31647,1.13745 0.6658,1.61052 0.44735,0.27879 0.48017,-0.51026 0.4758,-0.79953 0.0968,-1.5387 0.54073,-3.03151 1.13185,-4.44808 1.0883,-2.68681 2.50361,-5.23786 4.15089,-7.62109 1.43025,-2.00522 3.10454,-3.82504 4.86004,-5.54799 1.60808,-1.57461 3.37148,-2.98037 5.20153,-4.28714 1.67599,-1.19535 3.39549,-2.34635 5.24153,-3.26455 0.33192,-0.1489 0.68126,-0.31433 1.04941,-0.3206 0.36525,0.14423 0.28799,0.62896 0.36058,0.94738 0.24832,2.29601 0.26517,4.60994 0.23451,6.91678 -0.0372,1.88752 -0.25655,3.77546 -0.74034,5.60278 -1.07625,4.17912 -3.22492,8.01654 -5.85963,11.40826 -1.58954,2.02807 -3.32323,3.94869 -5.22286,5.69108 -0.48834,0.44458 -1.02783,0.83005 -1.56189,1.21343 -0.34015,0.25202 -0.18659,0.90053 0.28484,0.73534 0.42672,-0.0754 0.82035,-0.30118 1.26318,-0.2929 1.29736,-0.097 2.60036,-0.0577 3.89942,-0.0231 2.19997,0.11084 4.36356,0.57901 6.49432,1.11296 5.06028,1.31977 9.74264,3.82988 13.9555,6.89258 1.8766,1.37224 3.69594,2.84285 5.29018,4.54028 0.28831,0.26127 0.54679,0.80398 0.10435,1.05441 -0.50872,0.37299 -1.12788,0.54641 -1.6953,0.80747 -2.95354,1.19994 -6.02842,2.14618 -9.19132,2.58945 -1.96716,0.17644 -3.94873,0.13949 -5.91736,0.009 -1.83616,-0.18301 -3.63734,-0.61739 -5.41172,-1.11223 -3.21795,-0.92132 -6.34266,-2.19049 -9.25735,-3.83981 -0.69843,-0.39088 -1.33008,-0.88317 -1.97587,-1.35136 -0.21863,-0.272 -1.04797,-0.44256 -0.79842,0.12183 0.32166,0.4597 0.83278,0.74324 1.17654,1.18699 0.47473,0.5562 0.68928,1.27166 0.96153,1.93735 1.44401,3.9267 1.96377,8.14366 1.90589,12.31169 -0.0515,3.89332 -0.63221,7.78117 -1.76403,11.5082 -0.6313,2.13739 -1.32361,4.26765 -2.28085,6.28417 -0.16781,0.34912 -0.35522,0.69814 -0.6334,0.97298 -0.41215,0.16821 -0.68419,-0.3262 -0.9732,-0.53532 -0.0697,-0.0685 -0.13842,-0.13803 -0.20635,-0.2082 z"
       id="path3218"
       inkscape:export-filename="/Users/ksergi/Desktop/monoflower bunch.png"
       inkscape:export-xdpi="96"
       inkscape:export-ydpi="96" />
    <path
       style="fill:#dcb0e1;fill-opacity:1;stroke-width:0.123564"
       d="m 68.621695,182.22067 c -0.328597,-0.91307 -0.577615,-1.85217 -0.745492,-2.80782 -0.166684,-0.90217 -0.365089,-1.79929 -0.511202,-2.70471 -0.261103,-2.07625 -0.300213,-4.17228 -0.331931,-6.26217 -0.02339,-3.58776 0.270709,-7.20488 1.239412,-10.67125 0.250596,-0.98248 0.501503,-1.96677 0.87918,-2.90988 0.763197,-1.99867 1.57916,-3.99346 2.696314,-5.8245 0.441984,-0.70712 0.954423,-1.38277 1.626929,-1.88688 0.344272,-0.28517 0.694158,-0.56865 0.985731,-0.90963 0.07467,-0.5208 -0.689919,-0.14927 -0.925342,8e-4 -0.596215,0.34196 -1.107411,0.81857 -1.736683,1.1062 -1.905957,1.03451 -3.893083,1.92024 -5.947427,2.61672 -3.479354,1.22649 -7.130722,2.09616 -10.837839,2.08898 -2.258524,0.0199 -4.528284,-0.18718 -6.716303,-0.76625 -2.567316,-0.66242 -5.045087,-1.63437 -7.459278,-2.72207 -0.340942,-0.23091 -1.00642,-0.28995 -0.996825,-0.80911 0.04923,-0.38988 0.402087,-0.63077 0.632019,-0.91894 1.005147,-1.039 2.158353,-1.92017 3.300169,-2.8015 2.884961,-2.18945 5.966333,-4.14596 9.290557,-5.5998 4.031614,-1.78035 8.362848,-2.93963 12.770304,-3.20145 1.401731,-0.0742 2.810149,-0.0662 4.208614,0.0575 0.668745,0.0956 1.294599,0.43027 1.975092,0.43842 0.448145,-0.23924 -0.162526,-0.55433 -0.382698,-0.68669 -0.870813,-0.60542 -1.493968,-1.47624 -2.167083,-2.27909 -0.658801,-0.90299 -1.243021,-1.85975 -1.802249,-2.8273 -1.947337,-3.4095 -3.308978,-7.14001 -4.111372,-10.98023 -0.614402,-2.80501 -0.858032,-5.67938 -0.871878,-8.54749 -0.02182,-2.1334 -0.01223,-4.27559 0.251411,-6.39574 0.08122,-0.51639 0.152442,-1.07019 0.448339,-1.5125 0.367083,-0.22923 0.752449,0.15785 1.095134,0.28684 1.698424,0.9097 3.325937,1.95185 4.877408,3.09342 2.665364,1.99919 5.122164,4.34174 6.918815,7.16705 1.563091,2.39976 2.637065,5.07557 3.554709,7.77677 0.710489,2.0986 1.227244,4.2587 1.590494,6.44347 0.201563,1.20657 0.401954,2.42353 0.404623,3.64939 -0.116234,0.36763 0.195743,1.02916 0.627135,0.77123 0.282514,-0.36412 0.330098,-0.84899 0.539259,-1.25415 0.454175,-0.98447 1.0946,-1.86906 1.775811,-2.70779 3.016096,-3.83522 6.916035,-6.9166 11.170219,-9.27453 3.349974,-1.84491 6.967939,-3.16004 10.649999,-4.16695 1.42168,-0.36797 2.86501,-0.74898 4.34288,-0.75855 0.27231,0.0262 0.75516,-0.13278 0.56502,0.30076 -0.21192,1.47939 -0.63936,2.91577 -1.01721,4.35861 -0.81499,3.0194 -2.03248,5.94533 -3.76288,8.55841 -2.1506,3.29708 -5.10141,5.99613 -8.322161,8.22503 -1.901889,1.30991 -3.904784,2.47142 -5.964937,3.51304 -0.72277,0.34512 -1.452242,0.69672 -2.239515,0.86749 -0.379878,0.1138 -0.779191,0.25002 -1.066689,0.5321 -0.32926,0.38379 0.307312,0.50081 0.574999,0.38213 0.493323,-0.1121 0.98047,-0.29947 1.496,-0.24954 1.081925,0.0394 2.122688,0.37908 3.14876,0.6957 2.084819,0.70967 4.095899,1.62689 6.034293,2.6691 0.66897,0.38855 1.32591,0.79743 1.99399,1.18667 1.95159,1.33391 3.83607,2.77395 5.55796,4.39675 2.72948,2.57909 5.13163,5.49619 7.22566,8.6104 0.57198,0.90262 1.19457,1.80093 1.51125,2.83189 0.15266,0.35748 -0.071,0.73744 -0.47212,0.6402 -1.49461,0.24896 -3.00307,0.41219 -4.51767,0.46483 -1.93418,0.0857 -3.87886,0.13506 -5.80789,-0.0623 -2.64986,-0.29235 -5.25776,-0.98258 -7.68942,-2.07903 -0.335515,-0.12428 -0.684378,-0.23523 -0.7698,-0.62621 -0.498836,-0.9832 -0.939533,-2.00126 -1.531211,-2.93361 -0.169896,-0.35943 -0.61557,-0.42167 -0.890135,-0.14909 -0.395674,0.27237 -0.719443,0.63367 -1.065304,0.95996 -0.324962,0.28358 -0.68964,0.008 -0.972593,-0.18372 -1.954714,-1.24991 -3.755238,-2.72638 -5.475261,-4.27931 -0.956962,-0.86791 -1.857842,-1.79974 -2.675445,-2.79942 -0.154684,-0.18295 -0.636182,-0.76282 -0.741533,-0.29365 -0.06981,2.65387 0.05332,5.32724 -0.376015,7.95815 -0.394855,2.63852 -0.962416,5.25962 -1.822639,7.78769 -1.068835,3.11484 -2.659509,6.06644 -4.804401,8.57418 -2.090049,2.46953 -4.592878,4.56385 -7.258486,6.38441 -0.351639,0.19139 -0.741506,0.58042 -1.171572,0.44854 z"
       id="path2102"
       inkscape:export-filename="/Users/ksergi/Desktop/monoflower bunch.png"
       inkscape:export-xdpi="96"
       inkscape:export-ydpi="96" />
    <path
       style="fill:#a8f5c0;fill-opacity:1;stroke-width:0.123564"
       d="m 76.317608,227.90163 c 0.123556,-0.66057 0.458969,-1.26484 0.838531,-1.81105 0.783828,-1.02751 1.765255,-1.88552 2.767289,-2.69323 0.471304,-0.36363 0.962451,-0.7199 1.515846,-0.94645 0.407146,0.0617 0.03557,0.59183 -0.103815,0.78558 -0.695386,1.05942 -1.522516,2.02569 -2.36353,2.9709 -0.589053,0.63901 -1.207091,1.28412 -1.980569,1.69856 -0.203873,0.0923 -0.495716,0.19 -0.673752,-0.004 z m 9.068835,-1.54983 c -0.11897,-0.51548 0.267348,-0.95902 0.555975,-1.33908 1.02137,-1.20399 2.34479,-2.119 3.736741,-2.8449 0.874158,-0.4486 1.806377,-0.77334 2.747374,-1.04504 0.495209,-0.11275 0.267162,0.4677 0.0735,0.67092 -0.549956,0.83976 -1.292931,1.53018 -2.031252,2.20137 -1.195861,1.04348 -2.548846,1.95722 -4.074716,2.43349 -0.308998,0.0793 -0.76705,0.23307 -1.000672,-0.0636 z m 9.386099,-1.00106 c -0.06154,-0.56002 0.218357,-1.0792 0.421956,-1.58241 0.165528,-0.36634 0.353367,-0.73415 0.645053,-1.01746 0.3638,-0.19252 0.434335,-0.68493 0.831149,-0.85645 0.261374,-0.36759 0.77497,-0.56882 1.056829,-0.10622 0.429968,0.40749 0.847197,0.84429 1.164437,1.34496 0.05067,0.38953 -0.401507,0.58227 -0.621745,0.83845 -0.672472,0.56233 -1.383149,1.10997 -2.205054,1.43311 -0.391048,0.10469 -0.974973,0.27359 -1.292625,-0.054 z M 75.638003,222.1267 c -0.417066,-0.1229 -1.01215,-0.0677 -1.270189,-0.45887 -0.08252,-0.48443 0.447009,-0.74874 0.82903,-0.87607 0.992044,-0.33557 2.06069,-0.33536 3.095953,-0.28397 0.899044,0.0564 1.791149,0.2068 2.666543,0.4135 0.396173,0.25193 -0.126101,0.55128 -0.401469,0.5638 -1.230721,0.38226 -2.518258,0.54646 -3.798712,0.6528 -0.373197,0.024 -0.748947,0.0294 -1.121156,-0.0112 z m 30.336097,-1.19111 c 0.14925,-1.25205 0.32967,-2.50345 0.3925,-3.76288 0.1492,-0.51485 0.6284,-0.82226 0.97168,-1.20126 1.13554,-1.08077 2.34785,-2.08072 3.59168,-3.03213 0.24131,-0.23347 0.4788,0.0172 0.32073,0.27702 -0.31184,1.04273 -0.86992,1.98736 -1.37018,2.94687 -0.73228,1.35413 -1.58718,2.644 -2.60051,3.80505 -0.31821,0.35782 -0.63307,0.75009 -1.05146,0.99004 -0.0842,0.0195 -0.17528,0.01 -0.25444,-0.0227 z m -15.755475,-1.32723 c -1.685741,-0.46646 -3.347171,-1.11205 -4.794692,-2.10763 -0.21731,-0.1849 -0.719776,-0.48759 -0.476753,-0.78642 0.399879,-0.16063 0.852595,0.0129 1.265501,0.0573 1.535723,0.32719 2.949553,1.04614 4.337331,1.75649 0.482356,0.26535 0.983865,0.52403 1.389696,0.89968 0.101364,0.44271 -0.677973,0.43826 -0.986231,0.36734 -0.24766,-0.0512 -0.489036,-0.12793 -0.734852,-0.18674 z m 24.280445,-2.75869 c -0.41443,-0.17114 -0.27258,-0.6961 -0.30057,-1.0483 0.0333,-1.25829 0.70411,-2.37358 1.33796,-3.41944 1.11345,-1.73899 2.41546,-3.34819 3.74175,-4.92739 0.36103,-0.403 0.70769,-0.83921 1.14819,-1.15527 0.43816,-0.0136 0.13403,0.65609 0.0813,0.91966 -0.60249,2.19937 -1.28909,4.39199 -2.31235,6.43613 -0.20879,0.37458 -0.45824,0.7301 -0.60716,1.13505 -0.2751,0.32435 -0.49833,0.63975 -0.80223,0.9565 -0.20916,0.36952 -0.60293,0.55579 -0.94659,0.77772 -0.39694,0.23777 -0.86722,0.59898 -1.3403,0.32534 z m -22.461264,-0.4003 c -0.386058,-0.29161 -0.338493,-0.9036 -0.08631,-1.26815 0.269073,-0.34409 0.843078,-0.35458 1.112947,-0.004 0.326962,0.3231 0.421174,0.93052 0.03198,1.24611 -0.282432,0.27602 -0.757156,0.26427 -1.058611,0.0262 z m 13.952364,-4.2148 c -0.0186,-0.33853 -0.37488,-0.99639 0.13617,-1.08812 0.47174,-0.0221 0.94295,0.0557 1.41413,0.0836 0.84975,0.0738 1.70045,0.15216 2.5412,0.29945 0.4987,0.24114 -0.13346,0.67614 -0.44881,0.69107 -1.00162,0.35289 -2.04976,0.5474 -3.0931,0.72623 -0.38585,0.0157 -0.53621,-0.39306 -0.54959,-0.71225 z m 21.08171,-3.99293 c -0.64317,-0.54103 -0.70547,-1.44813 -0.72901,-2.22933 -0.0253,-2.33956 0.77884,-4.59541 1.77984,-6.67835 0.60136,-1.22546 1.27178,-2.42562 2.05972,-3.5388 0.3594,-0.37612 0.52438,0.19001 0.49834,0.49095 0.10606,1.07531 0.15108,2.1562 0.19772,3.23559 0.0638,1.76583 -0.0217,3.5514 -0.4629,5.26938 -0.25524,1.15668 -0.60303,2.37624 -1.49383,3.21359 -0.45273,0.43363 -1.20124,0.67615 -1.7613,0.30059 l -0.045,-0.0308 -0.0436,-0.0328 z m -16.89757,-0.3163 c -0.33999,-0.14064 -1.04269,0.0165 -1.074,-0.46889 0.17515,-0.39321 0.64102,-0.54017 0.98792,-0.75253 1.17903,-0.57362 2.46062,-0.88906 3.72391,-1.2169 2.01318,-0.48872 4.04069,-0.93368 6.08795,-1.25039 0.26015,-0.0169 0.84612,-0.2408 0.87163,0.12906 -0.27183,0.43265 -0.75472,0.66557 -1.16366,0.94782 -1.63764,1.01349 -3.43311,1.79563 -5.32685,2.17412 -1.22314,0.25233 -2.46563,0.4567 -3.71671,0.47522 -0.1307,-0.003 -0.26152,-0.0143 -0.39019,-0.0375 z m 6.91962,-8.8235 c 0.0818,-0.44756 0.55646,-0.63949 0.90412,-0.85218 1.35676,-0.70787 2.80674,-1.2127 4.24508,-1.72542 1.95782,-0.66547 3.93521,-1.29303 5.96128,-1.71586 0.25189,-0.092 0.80342,-0.0559 0.52594,0.32233 -0.55607,0.56322 -1.24417,0.97796 -1.91073,1.39879 -1.67923,0.98944 -3.4534,1.86199 -5.35374,2.33256 -1.28442,0.31175 -2.60785,0.53414 -3.9335,0.46979 -0.15676,-0.0312 -0.46277,0.0187 -0.43845,-0.23001 z M 62.218248,163.49203 c -1.705307,-0.0998 -3.458305,-0.30805 -5.003665,-1.08442 -0.539676,-0.27812 -1.104738,-0.71769 -1.172893,-1.36486 -0.0077,-0.51925 0.573743,-0.65771 0.98353,-0.70893 0.915435,-0.1304 1.849612,-0.0777 2.764535,0.032 1.472265,0.22162 2.888899,0.70052 4.305362,1.14386 1.005359,0.32634 2.010342,0.67049 2.961105,1.13451 0.433323,0.26332 0.153824,0.87148 -0.323873,0.78242 -1.163597,0.14058 -2.339859,0.10751 -3.509615,0.0991 -0.334939,-0.007 -0.669877,-0.0181 -1.004486,-0.0337 z m 4.432906,-3.43853 c -1.370168,-1.55002 -2.532861,-3.31308 -3.247005,-5.26241 -0.214157,-0.60981 -0.387385,-1.26685 -0.265949,-1.91551 0.369775,-0.28838 0.668716,0.3455 0.961182,0.51364 0.589026,0.54679 1.144845,1.14229 1.532978,1.85182 0.739429,1.16821 1.5871,2.27355 2.217461,3.50697 0.161239,0.53 -0.05183,1.07561 -0.151708,1.59677 -0.05644,0.23684 -0.22157,0.60933 -0.457596,0.2938 -0.217481,-0.17281 -0.395792,-0.38738 -0.589363,-0.58508 z m -10.536356,-3.53294 c -1.863196,-0.31329 -3.71874,-0.73288 -5.48807,-1.40414 -0.772161,-0.31515 -1.523917,-0.69311 -2.198984,-1.18605 -0.262803,-0.34527 -0.762393,-0.45104 -0.909583,-0.90148 -0.279878,-0.29369 -0.376485,-1.00888 0.210796,-0.94366 0.762939,0.0654 1.500075,0.29952 2.253133,0.43205 0.866895,0.18915 1.74775,0.30698 2.615464,0.48898 1.093724,0.29254 2.067895,0.89205 3.059972,1.41778 0.906777,0.50975 1.811106,1.03748 2.614527,1.70289 0.453969,0.21588 0.0066,0.6622 -0.347733,0.53848 -0.606856,0.036 -1.210712,-0.0599 -1.809522,-0.14485 z m 2.894432,-1.57805 c -0.38163,-0.49915 -0.83261,-0.97697 -1.021361,-1.59014 -0.01991,-0.47358 0.614863,-0.42033 0.936662,-0.4178 0.42525,0.0904 0.422756,0.58144 0.510891,0.9186 0.08826,0.45097 0.152323,0.92197 0.06806,1.37759 -0.158063,0.20518 -0.376582,-0.19974 -0.494252,-0.28825 z m -17.783969,-9.1033 c -0.42716,-0.29191 -0.150726,-0.87701 0.220428,-1.0762 0.381887,-0.30585 0.988303,-0.0727 1.065873,0.40925 0.09795,0.45916 -0.374378,0.85909 -0.797491,0.89379 -0.192488,0.012 -0.366788,-0.0833 -0.48881,-0.22684 z m 83.313429,-1.32534 c -0.44672,-0.13516 -0.44687,-0.6972 -0.27555,-1.04768 0.78172,-2.43686 1.98926,-4.75727 3.65728,-6.7065 0.44473,-0.5057 0.9267,-0.991 1.47046,-1.38602 0.52017,-0.0447 0.24339,0.64219 0.17425,0.92375 -0.44724,1.66808 -1.2784,3.19614 -2.06106,4.72448 -0.62889,1.19317 -1.28896,2.37786 -2.07495,3.47398 -0.24475,0.2885 -0.61172,0.18241 -0.89043,0.018 z m -4.35565,-2.0017 c -1.34821,-0.56422 -2.78686,-0.9064 -4.0964,-1.56058 -0.34313,-0.29585 -0.47177,-0.75575 -0.69123,-1.13868 -0.39331,-0.79695 -0.65761,-1.66986 -0.64027,-2.56523 -0.004,-0.52955 -0.0112,-1.13963 0.3623,-1.55876 0.38506,-0.38935 1.00507,-0.37804 1.4735,-0.15689 0.9524,0.40085 1.63881,1.22584 2.23019,2.04258 0.88972,1.3011 1.51421,2.7674 2.00075,4.26056 0.2611,0.39843 0.0118,1.01709 -0.51251,0.72926 l -0.0642,-0.0241 -0.0621,-0.0281 z m -76.677759,-0.91778 c -1.836217,-0.723 -3.518692,-1.82716 -4.948216,-3.18418 -0.446235,-0.43675 -0.877428,-0.92625 -1.083106,-1.52591 -0.0374,-0.48953 0.625871,-0.46885 0.964966,-0.40856 1.005776,0.15671 1.859891,0.76141 2.682171,1.32171 1.347689,0.95638 2.645906,2.04746 3.538829,3.45672 0.350169,0.31081 -0.0027,0.82299 -0.416516,0.56911 -0.25258,-0.0533 -0.49586,-0.14139 -0.738128,-0.22889 z m 2.29954,-1.30127 c -0.226888,-0.73319 -0.185151,-1.51314 -0.220574,-2.27094 -0.02005,-1.61557 0.05878,-3.26689 0.590595,-4.80582 0.06906,-0.39175 0.599539,-0.44588 0.598714,-0.003 0.299732,1.38325 0.218161,2.81548 0.09126,4.21474 -0.111173,0.91462 -0.204025,1.84364 -0.490982,2.72304 -0.07771,0.33973 -0.357627,0.50477 -0.569014,0.14219 z m 3.69927,0.14706 c -0.470685,-0.12511 -0.628871,-0.78161 -0.283773,-1.11895 0.336231,-0.41541 1.13747,-0.36077 1.301926,0.18936 0.163601,0.56025 -0.45883,1.19006 -1.018153,0.92959 z m 73.768929,-6.55584 c 0.12338,-1.01941 0.45926,-1.99813 0.78838,-2.96608 0.7571,-2.03559 1.93192,-3.90962 3.38413,-5.52074 0.59174,-0.64383 1.25037,-1.25524 2.03566,-1.64987 0.49833,-0.0495 0.32926,0.55904 0.22025,0.83814 -0.43544,1.4702 -1.28626,2.76741 -2.11129,4.04362 -1.16178,1.74692 -2.41636,3.43134 -3.71891,5.07515 -0.12082,0.13873 -0.5791,0.67062 -0.59822,0.17978 z m -2.21936,-3.20454 c -0.9619,-2.03636 -1.96446,-4.10771 -2.29439,-6.35816 -0.12169,-0.9208 -0.15763,-1.86231 -0.0222,-2.7831 0.11794,-0.3776 0.17634,-0.97098 0.65825,-1.03148 0.356,-0.0579 0.73529,0.0767 0.94628,0.3744 0.63745,0.74935 0.90502,1.72611 1.14609,2.65916 0.57858,2.43878 0.68847,4.95545 0.78002,7.45077 6.4e-4,0.47301 0.0269,0.95631 -0.0542,1.42149 -0.31836,0.16343 -0.43881,-0.38591 -0.58878,-0.58792 -0.20163,-0.376 -0.38355,-0.76206 -0.57107,-1.14516 z m -83.458579,0.45588 c -1.373841,-0.49738 -2.768461,-1.00451 -3.989214,-1.82207 -0.271865,-0.10592 -0.804999,-0.66954 -0.258497,-0.73962 0.552627,-0.0911 1.120357,-0.006 1.664406,0.10246 1.022577,0.25639 1.945497,0.79121 2.854673,1.30779 0.743138,0.44457 1.4844,0.91729 2.094645,1.53706 0.04396,0.4069 -0.594817,0.13746 -0.826285,0.0963 -0.521646,-0.13238 -1.030444,-0.30951 -1.539728,-0.48194 z m 2.85536,-0.93183 c -0.914754,-1.31806 -1.773472,-2.74175 -2.069675,-4.34015 -0.05718,-0.36922 -0.07686,-0.74849 -0.01178,-1.11808 0.320386,-0.32046 0.813689,-0.0289 1.047851,0.25934 0.729243,0.81229 1.092602,1.8722 1.393504,2.9023 0.23251,0.87967 0.401501,1.78951 0.392351,2.70046 -0.191322,0.40074 -0.570073,-0.18934 -0.72523,-0.36902 l -0.02703,-0.0349 z m 85.665189,-9.04667 c 0.13474,-0.61451 0.55254,-1.11077 0.88789,-1.62653 1.38085,-1.93689 2.98578,-3.75277 4.94284,-5.12459 0.50397,-0.33983 1.04813,-0.65624 1.64845,-0.77973 0.46907,0.0826 0.30128,0.69158 0.0892,0.96001 -0.56206,0.97944 -1.36062,1.79311 -2.13302,2.60645 -1.46441,1.4836 -3.05961,2.85184 -4.82161,3.9706 -0.1657,0.0939 -0.60467,0.38185 -0.61373,-0.006 z m -1.77362,0 c -0.39638,-1.09424 -0.65608,-2.23148 -0.94389,-3.35741 -0.37213,-1.63615 -0.5775,-3.31145 -0.61749,-4.98853 0.0187,-1.09849 0.19198,-2.20046 0.54028,-3.24294 0.099,-0.38714 0.44641,-0.82399 0.89201,-0.6511 0.36011,0.11618 0.41114,0.53621 0.57634,0.82598 0.43466,0.97955 0.59378,2.05503 0.60736,3.12002 0.0463,1.49089 0.0501,2.98626 -0.0574,4.47458 -0.11309,1.21138 -0.30641,2.4176 -0.58801,3.60092 -0.0309,0.20174 -0.21478,0.45845 -0.40922,0.21848 z m 5.47907,-9.19041 c 0.27962,-0.54867 0.763,-0.95488 1.16745,-1.40918 1.2502,-1.30132 2.57096,-2.55503 4.09459,-3.5339 0.47718,-0.31005 0.96678,-0.6082 1.49018,-0.83349 0.48422,-0.0209 0.24887,0.66154 8.9e-4,0.84871 -0.78453,1.00614 -1.78993,1.80864 -2.767,2.61767 -1.09582,0.87064 -2.21298,1.7269 -3.42587,2.42904 -0.18052,0.11188 -0.59453,0.25199 -0.56024,-0.11885 z m -2.51402,-1.80683 c -0.4502,-2.44093 -0.74765,-4.97192 -0.25116,-7.43021 0.13286,-0.58751 0.30503,-1.19696 0.69241,-1.67061 0.28654,-0.37244 0.97356,-0.45168 1.1144,0.092 0.51338,1.32427 0.51103,2.77963 0.42491,4.17761 -0.14297,2.10008 -0.59007,4.17541 -1.25341,6.17027 -0.0371,0.26672 -0.39722,0.47507 -0.40088,0.0729 -0.14221,-0.46225 -0.23265,-0.93812 -0.32627,-1.41195 z m 7.25416,-7.13586 c -0.1503,-0.49444 0.47006,-0.7052 0.80445,-0.89886 1.59863,-0.80046 3.26756,-1.52977 5.04372,-1.81661 0.41381,-0.05 0.84837,-0.10628 1.25679,-0.0208 0.36374,0.29434 -0.20611,0.67053 -0.45239,0.82102 -1.44475,0.87366 -3.06838,1.40451 -4.6973,1.8151 -0.56042,0.1265 -1.12883,0.25858 -1.70478,0.27014 -0.10355,-0.0106 -0.21989,-0.0604 -0.25049,-0.16994 z m -1.97652,-0.70365 c -0.15832,-0.65275 -0.0782,-1.33165 -0.0836,-1.99606 0.0303,-1.371649 0.17592,-2.74923 0.58061,-4.065001 0.26956,-0.931287 0.59984,-1.898756 1.29141,-2.606364 0.33719,-0.419221 0.74271,0.0404 0.81611,0.411038 0.18112,0.606291 0.097,1.248753 0.10628,1.871688 -0.0662,1.76282 -0.6648,3.458817 -1.4698,5.012919 -0.25767,0.5019 -0.50394,1.02926 -0.89284,1.44357 -0.11509,0.0977 -0.29233,0.0797 -0.3482,-0.0718 z m 9.09858,-8.106047 c 0.17418,-0.604892 0.59607,-1.094193 0.94048,-1.608065 0.78847,-1.06708 1.66633,-2.121128 2.82282,-2.802847 0.31443,-0.256629 1.0751,-0.307932 0.92624,0.282213 -0.0792,0.728758 -0.56815,1.32766 -1.02375,1.868947 -0.88764,0.998413 -1.98237,1.814864 -3.18621,2.391748 -0.16253,0.07858 -0.49654,0.162621 -0.47958,-0.131996 z m -1.68748,-1.35349 c -0.1321,-1.886808 -0.15396,-3.784487 -0.0167,-5.671481 0.0277,-0.322327 0.0952,-0.677081 0.35338,-0.898576 0.45198,0.0051 0.48976,0.578729 0.63463,0.900319 0.29066,1.02194 0.20899,2.099011 0.17006,3.147002 -0.0846,1.226507 -0.28922,2.456477 -0.684,3.62023 -0.44282,0.270637 -0.35679,-0.487534 -0.42433,-0.750345 -0.012,-0.115608 -0.0224,-0.231477 -0.0331,-0.347149 z"
       id="path984"
       inkscape:export-filename="/Users/ksergi/Desktop/monoflower bunch.png"
       inkscape:export-xdpi="96"
       inkscape:export-ydpi="96" />
    <path
       style="fill:#000000;stroke-width:0.123564"
       d="m 76.123504,227.84968 c -0.512213,-0.39402 -0.482708,-1.13976 -0.27984,-1.69041 0.551705,-1.52917 1.762538,-2.674 2.913126,-3.76798 0.107356,-0.13179 0.519088,-0.39191 0.1282,-0.31446 -1.09812,0.0291 -2.198801,0.12943 -3.296579,0.0532 -0.735409,-0.0824 -1.56806,-0.41941 -1.841408,-1.1655 -0.181874,-0.61544 0.219612,-1.24001 0.729658,-1.56022 0.920612,-0.62629 2.076786,-0.7099 3.157534,-0.73037 1.742709,-0.009 3.487725,0.33051 5.091818,1.0136 0.4971,0.12297 0.970993,-0.1618 1.466082,-0.17403 1.382584,-0.17449 2.783921,-0.12833 4.163655,-0.33136 -0.0104,-0.2463 -0.561765,-0.24623 -0.757071,-0.42417 -1.224071,-0.56742 -2.450833,-1.22476 -3.38024,-2.22291 -0.249376,-0.28461 -0.497061,-0.71057 -0.305552,-1.08563 0.228328,-0.34827 0.568526,-0.73401 1.026077,-0.69126 1.862718,-0.004 3.637254,0.70945 5.259157,1.56873 1.217377,0.63715 2.362325,1.39866 3.503465,2.16091 0.459076,-0.1266 0.945357,-0.18406 1.368502,-0.41632 0.05587,-0.38643 -0.355713,-0.62804 -0.519287,-0.93954 -0.287154,-0.39008 -0.643007,-0.82096 -1.167191,-0.84678 -0.772224,-0.15886 -1.607975,-0.38203 -2.137114,-1.0091 -0.292494,-0.38855 -0.08578,-0.93368 0.289279,-1.18079 0.36585,-0.16844 0.75928,-0.44818 0.449636,-0.86826 -0.398281,-0.91793 -0.892057,-1.79186 -1.292431,-2.70949 -1.120287,-2.45784 -1.958848,-5.05387 -2.356188,-7.72978 -0.04552,-0.27094 -0.09087,-0.54191 -0.13649,-0.81284 -0.809113,1.74425 -1.710524,3.44804 -2.77263,5.05263 -1.484148,2.27738 -3.158548,4.45036 -5.143774,6.31523 -2.636966,2.43304 -5.877027,4.13727 -9.274682,5.24199 -1.400343,0.46026 -2.822948,0.86476 -4.270687,1.14461 -0.42428,0.0883 -1.108507,0.18131 -1.244421,-0.3711 -0.143977,-0.7246 -0.01012,-1.46998 0.07703,-2.19446 0.350052,-2.16663 0.957727,-4.28298 1.627741,-6.36986 0.883337,-2.69268 1.977999,-5.32927 3.459255,-7.75194 1.558686,-2.57258 3.419109,-4.9731 5.58661,-7.06226 1.051403,-1.00543 2.200298,-1.91416 3.446852,-2.66492 -0.228,-0.1557 -0.722914,-0.17472 -1.047379,-0.28485 -2.894875,-0.66027 -5.644889,-1.8636 -8.19592,-3.36968 -3.47396,-2.0606 -6.565634,-4.73578 -9.201369,-7.79046 -1.400123,-1.62936 -2.74124,-3.32035 -3.873395,-5.14912 -0.336884,-0.58572 -0.67351,-1.1905 -0.840483,-1.84832 -0.122902,-0.53862 0.453618,-0.66427 0.852272,-0.71866 1.489166,-0.32203 3.001095,-0.53628 4.516506,-0.68804 1.869824,-0.15693 3.747563,-0.0768 5.620493,-0.04 -0.237352,-2.52386 -0.177605,-5.06073 -0.206685,-7.592 -0.0067,-0.57932 -0.03578,-1.16329 -0.0518,-1.73833 -0.265985,-0.30103 -0.757244,-0.0549 -1.11532,-0.12187 -1.407596,0.0387 -2.819857,0.10344 -4.223448,-0.0495 -1.451456,-0.10885 -2.912629,-0.35972 -4.241389,-0.9775 -0.800758,-0.36678 -1.601823,-0.88472 -2.01338,-1.69041 -0.323103,-0.70171 -0.0993,-1.63657 0.58658,-2.03385 0.831766,-0.52946 1.865612,-0.53553 2.817473,-0.49719 1.574365,0.0871 3.095844,0.53206 4.60494,0.95607 0.155086,0.0824 0.461441,0.0266 0.183479,-0.1414 -0.909199,-0.71442 -1.863268,-1.36922 -2.790757,-2.05919 -0.281073,-0.20988 -0.638845,-0.33506 -0.988836,-0.24726 -1.21222,0.10842 -2.42273,-0.0998 -3.620302,-0.26299 -1.920972,-0.29721 -3.848367,-0.68727 -5.635957,-1.47421 -1.188818,-0.50681 -2.383176,-1.09092 -3.321026,-1.99855 -0.483893,-0.4822 -0.868826,-1.18281 -0.68611,-1.8811 0.06267,-0.4766 -0.435015,-0.57028 -0.776608,-0.67568 -1.932243,-0.73396 -3.831265,-1.5646 -5.654563,-2.53946 -0.382706,-0.15854 -0.724233,-0.55751 -0.370105,-0.93317 0.269462,-0.39071 0.540886,-0.77968 0.854816,-1.13654 0.221424,-0.24884 0.300812,-0.58152 0.244691,-0.90573 -0.0518,-0.49163 -0.07479,-1.07989 0.345714,-1.42848 0.565326,-0.45722 1.340016,-0.40484 2.025034,-0.41882 0.401899,0.006 0.805218,-0.11748 1.101906,-0.39626 0.185,-0.15599 0.648385,-0.35608 0.587248,-0.58064 -0.726424,-0.22547 -1.447782,-0.46732 -2.141811,-0.78098 -0.555026,-0.22729 -1.089663,-0.50523 -1.601316,-0.81458 -0.623251,-0.26097 -1.130868,-0.72415 -1.677995,-1.10924 -1.025162,-0.78767 -2.065909,-1.66855 -2.597225,-2.87821 -0.191787,-0.47455 -0.177886,-1.05919 0.165882,-1.46254 0.330884,-0.45697 0.95947,-0.3712 1.451636,-0.35916 0.805204,0.0367 1.571884,0.3278 2.258617,0.73711 1.171843,0.64337 2.215762,1.48601 3.237526,2.3406 0.264013,0.15616 -0.06833,-0.31888 -0.07099,-0.42164 -0.603149,-1.47707 -1.224759,-2.9465 -1.837998,-4.41939 -1.575977,-0.67245 -3.199333,-1.22248 -4.813641,-1.79306 -1.269074,-0.47355 -2.546585,-0.96002 -3.709936,-1.66165 -0.578723,-0.38696 -1.15911,-0.96214 -1.179301,-1.70157 0.04328,-0.59976 0.64779,-0.97021 1.198146,-1.02907 1.025654,-0.15407 2.040541,0.19347 2.986393,0.55306 0.76926,0.31597 1.490459,0.73368 2.242425,1.08658 0.254581,-0.0319 -0.198261,-0.50122 -0.219329,-0.69748 -0.565018,-1.14203 -1.098174,-2.39053 -0.973653,-3.69288 0.05591,-0.53505 0.397937,-1.12781 0.987096,-1.1723 0.779472,-0.0746 1.470798,0.45667 1.936414,1.03072 0.549394,0.73079 0.886837,1.59566 1.193298,2.44982 0.453914,1.3545 0.596378,2.79014 0.59735,4.21201 0.0068,0.46343 -0.0031,0.98576 0.345542,1.34178 0.446822,0.68935 0.689811,1.48283 1.017164,2.23106 0.304178,0.73979 0.571049,1.5028 0.955788,2.20395 0.197237,-0.0851 0.02788,-0.59664 0.115726,-0.83877 0.09729,-1.08521 0.274658,-2.17144 0.615918,-3.20798 0.219813,-0.58251 0.573502,-1.2349 1.222917,-1.40113 0.554615,-0.0829 1.005108,0.41377 1.155561,0.90284 0.41989,1.14905 0.386664,2.39833 0.345965,3.60242 -0.08564,1.69036 -0.439986,3.35212 -0.840577,4.99092 -0.03618,0.42444 0.460836,-0.0972 0.643394,-0.15194 0.31583,-0.21258 0.681423,-0.39286 0.906095,-0.70769 0.181093,-0.41495 0.06187,-0.8891 0.201252,-1.31728 0.110378,-0.4472 0.544468,-0.87703 1.034789,-0.74878 0.47198,0.11412 0.779155,0.52851 1.108524,0.84853 0.415246,-0.0965 0.794051,-0.37717 1.198362,-0.53489 2.005301,-0.97152 4.092253,-1.77031 6.232502,-2.38964 3.188479,-0.92585 6.503038,-1.48555 9.82951,-1.44707 0.728162,0.0161 1.454976,0.0691 2.179991,0.13684 0.289628,-0.27299 -0.308239,-0.58946 -0.418347,-0.85664 -2.059692,-2.56752 -3.568934,-5.5299 -4.79284,-8.57258 -0.772055,-1.93386 -1.35184,-3.94084 -1.762605,-5.98152 -0.370611,-1.78686 -0.685156,-3.59024 -0.832461,-5.41037 -0.108532,-1.94491 -0.05623,-3.89386 -0.05959,-5.8406 0.02159,-1.57844 -0.0072,-3.17636 0.320647,-4.72867 0.130819,-0.5285 0.269853,-1.08477 0.598255,-1.52689 0.350391,-0.30377 0.806665,-0.049 1.142653,0.14118 2.321773,1.20883 4.568783,2.57752 6.616045,4.21407 1.844164,1.44349 3.536714,3.08931 4.948908,4.96148 2.218266,2.88279 3.727196,6.24172 4.861202,9.67962 0.814326,2.49437 1.438194,5.05381 1.787596,7.65596 0.05374,0.41314 0.130456,0.8207 0.168795,1.23511 0.123417,0.34516 0.337244,-0.28853 0.466895,-0.39366 0.454526,-0.7523 0.951941,-1.47741 1.509633,-2.15737 1.867588,-2.32343 4.084864,-4.34856 6.452052,-6.15208 4.703456,-3.52797 10.191735,-5.91569 15.870575,-7.3669 1.54656,-0.39735 3.12566,-0.76166 4.73143,-0.74631 0.50465,-0.0668 0.76836,0.44247 0.65349,0.88153 -0.1418,1.12594 -0.40185,2.23411 -0.66112,3.33804 -0.66643,2.75422 -1.56361,5.46889 -2.91286,7.96924 -1.60163,2.99365 -3.79858,5.65408 -6.37308,7.86185 -1.16731,1.04493 -2.3887,2.03281 -3.706725,2.88262 -1.937664,1.30499 -3.951036,2.49969 -6.04414,3.53818 -0.441323,0.20323 0.154054,0.28028 0.346654,0.3171 2.060797,0.47995 4.037658,1.26992 5.942028,2.18263 3.586903,1.75588 6.858413,4.11761 9.784873,6.82606 1.39978,1.29771 2.68352,2.71386 3.9128,4.172 0.10913,0.15664 0.51604,0.54903 0.28494,0.13491 -0.55551,-1.28101 -1.20518,-2.52265 -1.65701,-3.84703 -0.96268,-2.65621 -1.60806,-5.42378 -1.99662,-8.22003 -0.0697,-0.39547 -0.11,-1.05267 0.4484,-1.06777 1.34976,-0.12991 2.68009,0.21948 3.98479,0.51641 0.44535,-0.009 -0.0947,-0.49383 -0.10863,-0.71666 -0.49162,-1.15022 -0.70683,-2.45017 -0.46539,-3.68654 0.22224,-0.90734 1.05895,-1.70629 2.03072,-1.65618 1.17246,0.0344 2.18832,0.7848 2.9303,1.63905 1.31612,1.48637 2.10588,3.33538 2.80285,5.17114 0.0656,0.15656 0.1634,0.4959 0.13884,0.14037 0.0562,-2.05614 0.17753,-4.10968 0.28533,-6.16355 -1.19495,-2.52228 -2.49419,-5.00104 -3.50237,-7.607 -0.65692,-1.74933 -1.14927,-3.62128 -0.97788,-5.50433 0.0847,-0.85295 0.34861,-1.77582 1.06311,-2.31434 0.65108,-0.46022 1.60512,-0.31348 2.1316,0.2707 0.82756,0.80872 1.20743,1.94215 1.53641,3.02254 0.3773,1.31361 0.51661,2.67702 0.73002,4.02228 0.11078,0.34322 0.17493,-0.30759 0.22959,-0.41625 0.30473,-1.17509 0.5478,-2.3648 0.82064,-3.54742 -0.51668,-1.08896 -0.98482,-2.2053 -1.2883,-3.37439 -0.60114,-2.15647 -1.00811,-4.38146 -1.04373,-6.6242 -0.005,-1.39264 0.12398,-2.83494 0.74228,-4.10319 0.28039,-0.57116 0.81924,-1.14098 1.50914,-1.08123 0.67183,0.0565 1.14931,0.62279 1.41587,1.19672 0.60174,1.19721 0.79466,2.54745 0.92249,3.86668 0.0685,0.87859 0.0626,1.76048 0.0678,2.64106 0.25547,-0.59092 0.55547,-1.21835 0.42719,-1.88053 -0.1659,-1.50558 -0.56339,-2.97278 -0.77937,-4.47085 -0.30564,-1.86906 -0.52586,-3.78506 -0.22026,-5.66982 0.15986,-1.06502 0.42106,-2.16437 1.07436,-3.04269 0.41036,-0.538017 1.17666,-0.890599 1.82514,-0.570787 0.73391,0.377047 1.03688,1.220127 1.2321,1.970577 0.40147,1.63353 0.28743,3.33912 0.0786,4.99185 0.006,0.16565 -0.0994,0.6568 0.0247,0.60256 0.42142,-0.52543 0.7109,-1.14141 1.08465,-1.70047 0.32718,-0.51827 0.66633,-1.02885 1.00802,-1.53762 -0.33535,-0.62481 -0.61506,-1.29098 -0.67687,-2.00479 -0.25125,-1.91023 -0.0186,-3.855945 0.43492,-5.718449 0.29487,-1.135577 0.68347,-2.292017 1.43976,-3.209352 0.39482,-0.474731 1.0641,-0.852849 1.68342,-0.5995 0.65711,0.304188 0.88999,1.070713 0.99619,1.731456 0.21826,1.379706 -0.0172,2.786383 -0.35692,4.12621 -0.16032,0.580325 -0.35859,1.149448 -0.51478,1.730965 1.06402,-0.954796 2.03643,-2.0055 3.05432,-3.008159 0.27007,-0.348013 0.83249,-0.583087 0.67256,-1.097375 -0.12339,-2.885277 -0.31214,-5.777216 -0.13882,-8.664369 0.0493,-0.723192 0.25098,-1.54214 0.88996,-1.967726 0.3725,-0.250211 0.88486,-0.191292 1.21187,0.109666 0.75245,0.617155 0.96715,1.638243 1.05048,2.56099 0.10522,1.167101 -0.0192,2.34085 -0.0452,3.505845 0.29919,-0.257113 0.57067,-0.571347 0.85424,-0.855065 0.71666,-0.72973 1.44537,-1.508879 2.40222,-1.918617 0.52763,-0.200464 1.18638,-0.273284 1.67391,0.06205 0.41591,0.372272 0.39032,0.996599 0.31678,1.502952 -0.20345,1.058376 -0.94807,1.901836 -1.69409,2.633885 -1.12827,1.045637 -2.42453,1.922055 -3.83801,2.532349 -0.44243,0.160712 -0.9643,0.253505 -1.23056,0.689725 -0.52443,0.759776 -1.19209,1.406118 -1.82426,2.075232 -0.59096,0.607916 -1.18991,1.208879 -1.75075,1.845127 0.8931,-0.182855 1.72997,-0.569085 2.62579,-0.744319 0.88228,-0.199039 1.82507,-0.347809 2.71004,-0.0867 0.45367,0.153548 0.8476,0.653822 0.6615,1.143989 -0.23195,0.67397 -0.86926,1.08428 -1.44387,1.44731 -1.62003,0.9651 -3.46563,1.44987 -5.28663,1.87491 -0.76156,0.16429 -1.53795,0.26318 -2.31145,0.33103 -0.47277,0.12472 -0.64591,0.62969 -0.92483,0.97538 -0.9495,1.39533 -1.84227,2.83388 -2.61484,4.33489 -0.10463,0.1984 -0.0756,0.35408 0.11026,0.1376 0.83011,-0.68366 1.56298,-1.47675 2.40494,-2.14729 1.10682,-0.92272 2.2597,-1.8378 3.60283,-2.39092 0.45306,-0.18698 1.07453,-0.27624 1.43156,0.14034 0.36241,0.4625 0.18881,1.11752 -0.0972,1.57297 -0.63703,1.08776 -1.58801,1.94257 -2.51638,2.77645 -1.93571,1.69057 -4.09732,3.10253 -6.33416,4.35899 -0.34925,0.23133 -0.84023,0.38219 -0.95579,0.83416 -0.38211,0.93117 -0.72153,1.87981 -1.01848,2.84151 0.23467,0.0312 0.4518,-0.44559 0.66289,-0.61119 1.2282,-1.44486 2.60242,-2.80124 4.24922,-3.76368 0.64985,-0.35769 1.36153,-0.67918 2.1171,-0.67249 0.42997,0.0763 0.79195,0.47186 0.93284,0.87289 0.0108,0.77746 -0.37784,1.49738 -0.79917,2.12845 -1.18866,1.72682 -2.77653,3.13074 -4.40565,4.43019 -1.39112,1.10592 -2.83824,2.15235 -4.40711,2.99367 -0.38927,1.643 -0.81435,3.27913 -1.11189,4.9422 0.125,0.12699 0.35698,-0.41995 0.502,-0.56559 0.64691,-0.96922 1.32768,-1.91952 2.12635,-2.77106 0.60814,-0.65601 1.24473,-1.32364 2.04795,-1.73902 0.41879,-0.19788 0.9188,-0.37693 1.37596,-0.22361 0.39537,0.19049 0.68366,0.60789 0.60457,1.05735 -0.0579,1.26267 -0.69775,2.39496 -1.30027,3.47232 -1.40161,2.3998 -3.10232,4.60661 -4.81984,6.78529 -0.52721,0.65053 -1.08891,1.2845 -1.49887,2.01846 -0.14872,0.41746 -0.0804,0.87121 -0.118,1.30577 -0.0496,1.93002 -0.0615,3.86217 7e-4,5.79159 0.1162,0.36672 0.2637,-0.30514 0.34127,-0.42728 0.32744,-0.89969 0.66889,-1.7955 1.10473,-2.64941 0.86328,-1.73731 1.91468,-3.40545 3.28198,-4.79196 0.5256,-0.51121 1.12992,-1.05184 1.88642,-1.14337 0.55529,-0.0655 1.01773,0.46813 0.9922,1.00005 -0.0424,1.21497 -0.51084,2.36504 -0.98961,3.46591 -0.82004,1.8695 -1.86899,3.6238 -2.90935,5.37608 -0.15817,0.3674 -0.54333,0.78661 -0.49234,1.15413 2.66287,1.66186 5.23629,3.49176 7.50889,5.66573 2.00841,1.90064 3.81589,4.03819 5.18602,6.44755 0.0971,0.38394 0.46193,0.11439 0.41439,-0.17785 0.36314,-1.60953 0.99827,-3.13956 1.68552,-4.63397 1.78265,-3.80669 4.22039,-7.29835 7.11586,-10.34122 2.99609,-3.122 6.47934,-5.74422 10.1556,-8.01108 0.89523,-0.53557 1.8086,-1.09753 2.83824,-1.32684 0.36793,-0.0409 0.9516,-0.16138 1.06044,0.32675 0.3057,1.21103 0.37659,2.4671 0.43889,3.71082 0.0691,2.05247 0.0975,4.10918 -0.0114,6.16072 -0.0764,1.45032 -0.31828,2.88826 -0.70128,4.28863 -0.84323,3.23791 -2.38341,6.25187 -4.21529,9.03629 -1.82177,2.76609 -3.99585,5.28821 -6.37546,7.58774 -0.33672,0.335 -0.67342,0.66999 -1.01012,1.00498 2.16901,8.8e-4 4.3546,-0.0554 6.49974,0.32492 2.45085,0.40559 4.85797,1.06305 7.19461,1.90283 4.87897,1.78497 9.34863,4.56913 13.32391,7.89377 1.16103,0.96839 2.31912,1.96007 3.28328,3.13042 0.21774,0.28297 0.46211,0.59189 0.49639,0.95767 -0.0844,0.4541 -0.60264,0.60415 -0.95428,0.80667 -2.02256,0.97166 -4.12096,1.7906 -6.2714,2.43243 -3.38247,0.99887 -6.95357,1.4616 -10.47159,1.07527 -4.57155,-0.46702 -8.9899,-1.9489 -13.11217,-3.94215 -0.7221,-0.34988 -1.439,-0.71043 -2.16207,-1.05833 0.0317,0.45027 0.30282,0.83757 0.42288,1.26627 1.13709,3.14719 1.66358,6.48512 1.8602,9.81608 0.16228,3.12442 -0.0917,6.26267 -0.63263,9.34101 -0.41991,2.37747 -1.07715,4.70528 -1.84447,6.99215 -0.52217,1.55841 -1.05118,3.1277 -1.83717,4.57672 -0.25463,0.43187 -0.52101,0.89078 -0.9336,1.18791 -0.40851,0.14692 -0.75382,-0.22332 -1.03066,-0.47098 -1.07933,-1.01284 -2.06516,-2.12056 -3.03633,-3.23601 -2.39838,-2.81023 -4.42391,-5.99207 -5.59222,-9.51465 -0.91535,-2.69343 -1.32719,-5.52822 -1.52451,-8.35732 -0.0344,-0.37401 -0.0569,-0.75137 -0.14551,-1.11763 -0.39097,0.50886 -0.62163,1.11678 -0.97472,1.65057 -0.49628,0.83913 -1.02129,1.66073 -1.53602,2.48855 0.31967,3.1811 0.68858,6.39542 0.32205,9.5892 -0.18396,1.42748 -0.51931,2.86306 -1.2098,4.13601 -0.47086,0.77519 -1.08528,1.50933 -1.89801,1.93757 -0.75788,0.36569 -1.73499,0.21294 -2.30947,-0.41309 -0.74493,-0.77593 -0.94188,-1.90307 -0.97247,-2.93947 -0.0396,-1.3461 0.29971,-2.66405 0.71992,-3.93177 0.22225,-0.7153 0.45543,-1.43049 0.77999,-2.1071 -0.0549,-0.18101 -0.31302,0.2656 -0.43571,0.32786 -1.16865,1.22577 -2.33087,2.45839 -3.54307,3.64138 -0.35186,0.35887 -0.6111,0.80759 -0.70314,1.30437 -0.61688,2.12507 -1.22611,4.2546 -1.95597,6.34417 -0.69442,1.84243 -1.58375,3.66435 -2.96861,5.09088 -0.6715,0.67784 -1.55626,1.27861 -2.55184,1.22022 -0.61203,-0.0362 -1.18549,-0.48154 -1.31046,-1.09256 -0.25614,-0.96852 0.0433,-1.97842 0.41128,-2.87643 0.62746,-1.46752 1.51676,-2.80341 2.44273,-4.09638 0.10375,-0.16517 0.39938,-0.59583 0.0365,-0.32924 -0.58684,0.37506 -1.11922,0.8291 -1.70367,1.20881 -0.56159,0.38053 -1.13611,0.74652 -1.6516,1.18969 -0.18743,0.38623 -0.24051,0.82172 -0.41378,1.21523 -0.7951,2.1825 -1.95157,4.22182 -3.3027,6.10594 -0.8177,1.06212 -1.70604,2.07935 -2.7198,2.95893 -0.37657,0.24066 -0.70115,0.58008 -0.7767,1.03603 -0.35319,1.14061 -0.6029,2.31775 -1.06891,3.42023 -0.21966,0.49967 -0.78205,0.30049 -1.13329,0.0826 -0.91901,-0.4929 -1.71425,-1.18338 -2.49659,-1.86536 -0.37481,-0.28104 -0.73987,-0.78225 -1.11635,-0.93059 -1.031245,0.86331 -2.041421,1.80551 -3.290578,2.34515 -0.698576,0.27669 -1.611678,0.36268 -2.195923,-0.2001 -0.433999,-0.43287 -0.457393,-1.11736 -0.244812,-1.66242 0.453972,-1.44116 1.435077,-2.63708 2.479828,-3.69776 0.16255,-0.23712 -0.348286,-0.49052 -0.460577,-0.73426 -0.188644,-0.29531 -0.57593,0.0459 -0.861421,0.0506 -0.288061,0.10784 -0.662247,0.12041 -0.851835,0.3885 -0.142381,0.37759 -0.169311,0.79602 -0.417314,1.13384 -0.659677,1.16047 -1.612122,2.11986 -2.585355,3.01956 -1.315416,1.18681 -2.79262,2.27904 -4.517769,2.77257 -0.659302,0.19213 -1.489056,0.22038 -1.988186,-0.33302 -0.276753,-0.26665 -0.392256,-0.6757 -0.269892,-1.04308 0.252245,-1.1232 1.090813,-1.9868 1.916556,-2.73471 0.898083,-0.78496 1.930161,-1.39165 2.940628,-2.01682 0.291569,-0.24502 -0.348659,-0.0941 -0.484107,-0.11527 -1.498506,0.10045 -2.998549,0.1717 -4.499028,0.23476 -1.052785,1.08772 -2.02219,2.2526 -2.926785,3.46569 -1.019607,1.28585 -2.101499,2.54519 -3.395391,3.56413 -0.476265,0.36059 -1.080383,0.72658 -1.699771,0.55661 -0.12852,-0.0415 -0.250006,-0.10853 -0.353999,-0.19294 z m 1.632273,-1.2888 c 1.10077,-0.89399 1.994142,-2.00823 2.872825,-3.11277 0.498736,-0.64335 0.984011,-1.29787 1.513418,-1.91673 0.08324,-0.36579 -0.4731,0.0501 -0.615229,0.12121 -1.469859,0.90354 -2.730649,2.10998 -3.868168,3.3978 -0.406596,0.49728 -0.806223,1.06606 -0.873722,1.72046 0.171988,0.44901 0.721064,-0.0442 0.970876,-0.20996 z m 9.883899,-1.5043 c 1.371334,-0.63533 2.573364,-1.5796 3.639199,-2.64173 0.661065,-0.64664 1.304325,-1.32858 1.789556,-2.11963 0.128233,-0.1549 0.0532,-0.41496 -0.139123,-0.18154 -0.879464,0.42793 -1.856984,0.61386 -2.718471,1.08517 -1.481924,0.7336 -2.907856,1.66581 -3.972922,2.94758 -0.27685,0.35696 -0.564925,0.76969 -0.565545,1.23807 0.225098,0.43492 0.82045,0.0805 1.170228,-1.1e-4 0.27115,-0.0954 0.536118,-0.20753 0.797078,-0.32781 z m 16.584804,-0.0165 c 0.48551,-1.51033 0.80561,-3.06744 1.13422,-4.61755 0.26057,-1.27469 0.39985,-2.5741 0.37939,-3.87584 0.0144,-1.95844 0.0777,-3.94757 -0.39525,-5.86437 -0.82736,-3.52438 -2.38078,-6.8405 -4.24937,-9.92683 -0.99754,-1.65525 -2.142371,-3.22453 -3.447392,-4.65041 -0.216434,-0.21619 -0.755941,-0.83938 -0.159191,-0.89391 0.632805,-0.002 1.247058,0.19124 1.873931,0.26293 1.380582,0.18745 2.777432,0.20043 4.168212,0.22932 3.89284,0.0398 7.84778,-0.37817 11.5042,-1.78072 3.20385,-1.22731 6.10204,-3.19578 8.51077,-5.63091 0.86626,-0.84873 1.74372,-1.68934 2.54595,-2.59975 0.18386,-0.44084 -0.45893,-0.59068 -0.74648,-0.75618 -1.29571,-0.62456 -2.6719,-1.0661 -4.07549,-1.37309 -2.42278,-0.57781 -4.87115,-1.08331 -7.35821,-1.27939 -2.63448,-0.23253 -5.29561,-0.16598 -7.91152,0.22907 -1.29352,0.18401 -2.59648,0.36912 -3.84943,0.74797 -1.5068,0.53409 -3.057997,0.97614 -4.468791,1.74462 -0.418571,0.22157 -0.831316,0.48516 -1.083775,0.89927 -0.216031,0.2795 -0.403451,0.63908 -0.745207,0.77356 -0.474188,-0.0613 -0.204918,-0.71195 -0.0068,-0.95575 0.341409,-0.53758 0.721327,-1.05351 0.979125,-1.63957 1.041326,-2.11848 1.83722,-4.35111 2.492955,-6.61624 0.566988,-2.04513 1.024133,-4.13914 1.085993,-6.26767 0.0415,-1.26091 0.0399,-2.52474 -0.0275,-3.78453 -0.14727,-1.73227 -0.615886,-3.4175 -1.120562,-5.07465 -0.363321,-1.14821 -0.849331,-2.25155 -1.352185,-3.34386 -0.254683,-0.66519 -0.533643,-1.32052 -0.871566,-1.94813 -0.1677,-0.33458 -0.34134,-0.66857 -0.563575,-0.97088 -0.410851,-0.1134 -0.638353,0.38163 -0.926891,0.58602 -1.374466,1.48734 -2.510545,3.17231 -3.632676,4.85217 -2.526571,3.88411 -4.445684,8.20376 -5.31688,12.76887 -0.357084,1.84216 -0.595534,3.71271 -0.632857,5.58995 0.01395,1.25427 0.07146,2.52516 0.39496,3.74249 0.115775,0.31689 0.474537,1.07258 -0.108705,1.08202 -0.421855,-0.12655 -0.683758,-0.51752 -1.000357,-0.79919 -0.827252,-0.85443 -1.65461,-1.7119 -2.575807,-2.46721 -2.048666,-1.72963 -4.28677,-3.23486 -6.639806,-4.51586 -0.457723,-0.24613 -0.82908,0.25398 -1.177287,0.48011 -1.103899,0.95527 -2.274707,1.83234 -3.478806,2.65712 -0.482719,0.31763 -0.969411,0.63692 -1.47929,0.9061 -0.51569,0.21818 -0.806734,-0.35109 -0.969938,-0.73852 -0.388615,-0.90884 -0.573174,-1.88865 -0.769378,-2.85298 -0.194483,-1.04555 -0.339206,-2.10252 -0.617957,-3.13051 -0.308623,-0.25226 -0.739401,-0.10695 -1.103081,-0.16934 -1.80991,-0.0357 -3.624818,-0.03 -5.429015,0.12988 -1.185097,0.14225 -2.370514,0.30321 -3.533649,0.57627 -0.394014,0.26561 0.101654,0.77879 0.206164,1.10233 0.839414,1.54833 1.952652,2.9231 3.030126,4.30862 2.889593,3.60029 6.368724,6.75932 10.375473,9.07349 2.401063,1.39061 4.980088,2.50768 7.687152,3.14042 0.780895,0.17689 1.581275,0.25363 2.38114,0.25147 0.286857,-0.0604 0.758171,0.19007 0.367463,0.45664 -0.450759,0.38096 -1.078435,0.43637 -1.543777,0.79706 -1.622352,1.03864 -3.037215,2.36293 -4.39365,3.72176 -1.219227,1.23763 -2.299235,2.606 -3.261112,4.05147 -2.516942,3.72449 -4.270695,7.93221 -5.357623,12.28548 -0.348851,1.42086 -0.717967,2.85126 -0.808488,4.31677 0.03554,0.30101 -0.121154,0.87684 0.307964,0.91559 0.356609,-0.0687 0.7041,-0.17808 1.060128,-0.25572 3.50227,-0.91432 6.979028,-2.15842 9.972799,-4.23556 3.060637,-2.10022 5.451403,-5.0241 7.42587,-8.136 1.226742,-1.92738 2.328965,-3.94611 3.143573,-6.08391 0.210299,-0.58621 0.359877,-1.20079 0.632512,-1.76069 0.372561,-0.3977 0.644001,0.34171 0.451475,0.64016 -0.198228,0.734 -0.476833,1.49233 -0.321996,2.26335 0.549935,4.69772 2.390865,9.17326 4.912782,13.14779 1.544268,2.43094 3.409659,4.64801 5.479111,6.64769 1.317622,1.29042 2.664882,2.5629 4.157632,3.65067 0.29904,0.20395 0.72701,0.52815 0.85025,-0.0328 z M 84.252616,197.87981 c -0.600054,-0.25187 -0.964175,-0.97392 -0.74274,-1.5983 0.17967,-0.52565 0.810863,-0.79581 1.325505,-0.60807 0.741472,0.23297 1.23622,1.22547 0.783097,1.90952 -0.265469,0.38885 -0.827421,0.62183 -1.254538,0.35206 l -0.05589,-0.0274 z m 7.17773,-1.05283 c -0.31957,-0.30631 -0.426873,-0.85429 -0.09954,-1.19585 0.324014,-0.45908 0.94336,-0.83535 1.504207,-0.57469 0.573829,0.24766 0.816105,1.02427 0.4693,1.54972 -0.318898,0.55945 -1.161724,0.81419 -1.692574,0.41113 -0.06623,-0.0577 -0.124606,-0.12354 -0.181389,-0.19031 z m -4.237534,-2.10157 c -0.644339,-0.13925 -1.034705,-1.00753 -0.601265,-1.54319 0.508431,-0.69947 1.6859,-0.89413 2.297937,-0.22732 0.487771,0.56506 0.199225,1.62675 -0.55649,1.77843 -0.379238,0.0428 -0.766223,0.12028 -1.140182,-0.008 z m 3.232417,-2.76413 c -0.362636,-0.34046 -0.358303,-0.90743 -0.233058,-1.35173 0.286915,-0.57435 1.121689,-0.90945 1.656436,-0.46475 0.653637,0.51764 0.514526,1.6974 -0.25315,2.0353 -0.385221,0.18312 -0.875201,0.0865 -1.170228,-0.21882 z m 6.749391,-0.32403 c -0.526661,-0.40955 -0.5084,-1.34003 0.08923,-1.6782 0.637635,-0.39308 1.562566,-0.0457 1.801005,0.66139 0.204682,0.4841 -0.114647,1.00404 -0.521586,1.26214 -0.392347,0.26539 -0.928224,0.16765 -1.262433,-0.14751 l -0.05417,-0.0478 -0.05205,-0.05 z m -11.466675,-1.11401 c -0.44903,-0.21683 -0.851219,-0.66801 -0.834698,-1.18938 0.08426,-0.59718 0.660804,-1.16153 1.292227,-1.00897 0.621061,0.12196 1.201494,0.65401 1.245586,1.30496 0.0032,0.68782 -0.769071,1.29584 -1.42856,1.00842 -0.0942,-0.0315 -0.185536,-0.0711 -0.274555,-0.11503 z m 4.976787,-4.71491 c -0.391296,-0.29104 -0.537728,-0.89243 -0.233264,-1.29743 0.299956,-0.50662 1.046909,-0.72157 1.527847,-0.3389 0.605848,0.42957 0.540235,1.51851 -0.175012,1.80167 -0.362483,0.16919 -0.824277,0.10841 -1.119571,-0.16534 z m 5.62822,38.53947 c 1.044941,-0.49057 1.986236,-1.20303 2.754584,-2.06328 -0.569032,-0.57342 -1.138062,-1.14684 -1.707086,-1.72027 -0.951494,0.8681 -1.81133,1.90141 -2.233781,3.13425 -0.149876,0.35617 -0.08519,1.04504 0.453269,0.9001 0.254026,-0.049 0.490762,-0.16309 0.733014,-0.2508 z m -17.005407,-3.47064 c 0.659336,-0.15909 1.333214,-0.28119 1.960915,-0.54682 0.181324,-0.31159 -0.483874,-0.24193 -0.670724,-0.3452 -1.403662,-0.2928 -2.868305,-0.49512 -4.286991,-0.17894 -0.538742,0.10674 -1.109521,0.2468 -1.525522,0.62623 -0.245863,0.41303 0.3658,0.57043 0.662416,0.62101 0.750228,0.14285 1.521147,0.0746 2.27849,0.0391 0.530842,-0.0391 1.060598,-0.10396 1.581416,-0.2154 z m 27.755475,-1.58283 c 1.43369,-1.64003 2.58511,-3.50727 3.5879,-5.4352 0.32011,-0.63974 0.60426,-1.29736 0.85369,-1.96778 -1.58349,1.0849 -3.08129,2.30109 -4.44134,3.65635 -0.27154,0.30658 -0.61951,0.6163 -0.62693,1.05788 -0.0144,0.4854 -0.0158,0.97113 -0.076,1.45434 -0.0623,0.66335 -0.15632,1.32337 -0.26799,1.98009 0.13841,0.32782 0.42267,-0.25338 0.59123,-0.33908 0.12875,-0.1334 0.25503,-0.26917 0.37946,-0.4066 z m -14.840488,-0.58539 c -0.268233,-0.37996 -0.726471,-0.54925 -1.105519,-0.79356 -1.652892,-0.90618 -3.384497,-1.73751 -5.248816,-2.09217 -0.222135,-0.0329 -0.973746,-0.20576 -0.705577,0.22446 1.033684,1.00296 2.384078,1.59856 3.722323,2.08197 0.821594,0.27777 1.648534,0.57839 2.513608,0.68343 0.260066,0.002 0.608453,0.053 0.823981,-0.10413 z m 23.269158,-2.86274 c 1.20027,-0.67457 1.95311,-1.88862 2.59028,-3.06713 1.24765,-2.38717 1.98348,-4.99381 2.67852,-7.5834 -1.29781,1.20913 -2.37129,2.63011 -3.46011,4.0235 -1.11655,1.47973 -2.17907,3.0372 -2.82542,4.78638 -0.1835,0.52912 -0.35883,1.12569 -0.15635,1.67441 0.22499,0.42139 0.81685,0.36633 1.17308,0.16624 z m -22.404206,-0.82103 c 0.046,-0.44214 -0.945609,-0.3713 -0.615051,-0.0296 0.178344,0.0761 0.454963,0.1976 0.615051,0.0296 z m 13.899226,-1.76993 c 0.18946,-0.0448 0.56527,-0.41004 0.12425,-0.30631 -0.28709,-0.0248 -0.88906,0.18417 -0.6113,0.53319 0.19076,0.017 0.32045,-0.16753 0.48705,-0.22688 z m 0.39251,-1.40406 c 1.0323,-0.22382 2.07261,-0.46395 3.04791,-0.87382 0.0256,-0.24613 -0.5497,-0.16155 -0.75754,-0.24548 -1.18283,-0.15859 -2.37541,-0.29574 -3.56929,-0.29345 -0.309,0.24218 0.12662,0.70393 0.0715,1.04609 -0.0752,0.47938 0.32997,0.63806 0.71281,0.45912 0.16498,-0.0303 0.32983,-0.0613 0.49465,-0.0925 z m 38.06805,-1.94776 c 0.76585,-1.39716 1.26499,-2.91788 1.79355,-4.41517 1.42125,-4.19768 2.34307,-8.58207 2.51121,-13.01765 0.12508,-3.31749 -0.26055,-6.64316 -0.99307,-9.8768 -0.37698,-1.60504 -0.82946,-3.21743 -1.63752,-4.66501 -0.2614,-0.46795 -0.63647,-0.86376 -1.08302,-1.15738 -0.2886,-0.16891 -0.77651,-0.77908 -0.22269,-0.91455 0.50113,0.0279 0.91572,0.37186 1.29232,0.67422 0.66666,0.59357 1.4702,0.99798 2.24521,1.42845 1.98119,1.03539 4.05031,1.8978 6.15467,2.64861 2.85274,0.99771 5.81596,1.76625 8.84669,1.90851 1.82384,0.0869 3.66073,0.0468 5.46992,-0.21271 2.66549,-0.41305 5.24053,-1.26639 7.75259,-2.22824 0.884,-0.34049 1.76201,-0.7114 2.6132,-1.12007 0.26746,-0.40601 -0.36656,-0.71838 -0.5368,-1.04872 -1.1351,-1.28834 -2.50393,-2.33839 -3.8244,-3.42578 -4.80711,-3.80922 -10.36352,-6.75989 -16.35384,-8.17482 -2.11685,-0.50101 -4.27569,-0.8631 -6.45193,-0.94735 -1.21981,-0.0269 -2.46414,-0.0133 -3.64749,0.31452 -0.33276,0.17222 -1.05,0.32114 -0.93123,-0.28421 0.0836,-0.46682 0.56752,-0.66615 0.8815,-0.96079 1.2219,-0.94779 2.30059,-2.06272 3.36777,-3.17746 2.62163,-2.79663 4.9053,-5.93141 6.61831,-9.36645 1.29094,-2.60705 2.21471,-5.41779 2.50722,-8.32101 0.24842,-2.4145 0.27967,-4.85081 0.12808,-7.27282 -0.0556,-0.88445 -0.15133,-1.76799 -0.2644,-2.64521 -0.12791,-0.5106 -0.68328,-0.33917 -1.01009,-0.15071 -1.30082,0.56025 -2.48857,1.3442 -3.67895,2.10334 -4.76491,3.12097 -9.08734,7.01672 -12.29334,11.75107 -1.71212,2.52226 -3.16035,5.23678 -4.18733,8.11045 -0.42517,1.22634 -0.75714,2.51123 -0.726,3.81815 0.0201,0.38515 -0.48237,0.58569 -0.60629,0.16031 -0.31304,-0.54204 -0.35125,-1.19505 -0.67587,-1.73318 -0.90531,-1.78224 -2.20929,-3.32154 -3.54381,-4.79484 -2.21495,-2.40569 -4.70912,-4.56969 -7.492,-6.29558 -1.69657,-1.07249 -3.45161,-2.06055 -5.29417,-2.86072 -0.85632,-0.39232 -1.70962,-0.79224 -2.59777,-1.10901 -2.25853,-0.84946 -4.56093,-1.60027 -6.91926,-2.11949 -0.5778,-0.12099 -1.17421,-0.20652 -1.76385,-0.12677 -0.30956,0.30321 -0.0167,0.75766 -0.0195,1.12478 0.74632,4.1905 1.98768,8.35407 4.20483,12.01555 1.01716,1.69136 2.24435,3.25697 3.66513,4.62815 1.61014,1.62058 3.34134,3.12544 5.22243,4.42485 1.93068,1.36345 3.93067,2.64817 6.07382,3.65352 0.68357,0.32881 1.46027,0.44335 2.09889,0.86467 0.37764,0.13352 0.39732,0.74277 -0.0867,0.65138 -0.52636,-0.0639 -1.01209,-0.30978 -1.52942,-0.42274 -1.00196,-0.25521 -2.04976,-0.13229 -3.06306,-0.0184 -2.35344,0.30299 -4.68164,0.81508 -6.92881,1.58103 -4.52518,1.5198 -8.71584,3.94508 -12.43005,6.9297 -2.15613,1.73189 -4.19437,3.61957 -6.02576,5.69369 -0.29555,0.35796 -0.61643,0.71587 -0.80672,1.14144 0.13058,0.32539 0.6442,-0.0813 0.9245,-0.0551 1.88044,-0.48925 3.7987,-0.85436 5.74156,-0.96194 3.4629,-0.23791 6.96554,-0.11337 10.37295,0.58105 1.87259,0.35958 3.70869,0.87801 5.54398,1.38944 1.83838,-0.68093 3.63685,-1.47164 5.35781,-2.41231 1.97341,-1.05531 3.86542,-2.26976 5.60651,-3.6773 0.26443,-0.17558 0.85116,-0.73157 1.01663,-0.21497 0.022,0.43472 -0.17715,0.84606 -0.25746,1.26866 -0.36753,1.52699 -0.57402,3.08877 -0.72645,4.65039 -0.15574,2.02496 -0.0982,4.05862 -0.0564,6.0868 0.0401,1.64223 0.12994,3.29117 0.47266,4.90204 0.54676,2.85142 1.51411,5.63396 2.98722,8.14242 1.58151,2.72907 3.59468,5.18367 5.75325,7.47354 0.24612,0.258 0.50263,0.51155 0.80507,0.70365 0.32598,-0.0526 0.45416,-0.40821 0.63591,-0.63913 z m -6.46846,-34.58741 c -0.69877,-0.13217 -1.25023,-0.93765 -0.94082,-1.62226 0.30036,-0.63836 1.20688,-0.74794 1.74778,-0.35848 0.50748,0.31539 0.84172,1.06994 0.45436,1.59666 -0.28202,0.38161 -0.81432,0.54383 -1.26132,0.38408 z m -5.06949,-2.86729 c -0.33864,-0.29725 -0.63542,-0.72574 -0.52816,-1.19858 0.0729,-0.52292 0.59033,-0.8919 1.10497,-0.86497 0.55272,-0.009 0.90776,0.47499 1.21617,0.86559 0.27788,0.35688 0.39678,0.89698 0.0951,1.27757 -0.27668,0.4233 -0.87861,0.63351 -1.32671,0.34948 -0.21086,-0.10837 -0.39386,-0.26297 -0.56137,-0.42909 z m 15.81462,0.0465 c -0.47118,-0.27338 -0.80094,-0.75697 -0.97036,-1.26604 -0.0942,-0.45313 0.0818,-0.99872 0.49353,-1.23651 0.64791,-0.2975 1.39323,0.15165 1.70155,0.73477 0.27429,0.44311 0.40083,1.1093 -0.0224,1.5047 -0.28572,0.22481 -0.68834,0.44694 -1.05754,0.31935 -0.0487,-0.0177 -0.0964,-0.0378 -0.14474,-0.0563 z m -6.90697,-0.90087 c -0.38452,-0.32227 -0.43178,-0.8681 -0.40209,-1.33585 0.20348,-0.66303 1.12652,-1.0042 1.67175,-0.53165 0.37247,0.28749 0.54838,0.78351 0.51027,1.2419 -0.10086,0.40754 -0.45891,0.73147 -0.84961,0.86247 -0.33027,0.10145 -0.68273,-0.002 -0.93032,-0.23687 z m -4.97756,-3.58727 c -0.59593,-0.59503 -0.13246,-1.82182 0.72841,-1.8146 0.68687,0.0175 1.32386,0.7845 1.02642,1.45498 -0.26569,0.65894 -1.26212,0.91497 -1.75483,0.35962 z m 5.7069,-0.94025 c -0.64718,-0.23908 -0.95899,-1.13073 -0.52204,-1.69069 0.35972,-0.47757 1.05898,-0.50966 1.56559,-0.26677 0.40018,0.1514 0.89543,0.37002 0.96829,0.84307 0.12568,0.44789 0.009,1.03251 -0.46259,1.22621 -0.49481,0.23082 -1.07241,0.0992 -1.54925,-0.11182 z m -0.91893,-4.07753 c -0.42552,-0.36832 -0.48095,-1.05992 -0.13123,-1.4984 0.33718,-0.53043 1.16214,-0.69701 1.62986,-0.24109 0.62838,0.58854 0.34083,1.79124 -0.48459,2.03834 -0.37454,0.15623 -0.7591,-0.0132 -1.01404,-0.29885 z m -8.50285,-0.0584 c -0.55518,-0.25392 -0.79279,-1.02838 -0.41802,-1.52866 0.22662,-0.42616 0.73335,-0.62484 1.19193,-0.4937 0.54635,0.10923 1.02294,0.62279 0.9444,1.20188 0.026,0.49802 -0.40307,0.87142 -0.86435,0.94904 -0.28731,0.0647 -0.60011,0.0236 -0.85396,-0.12856 z m -19.81227,45.77227 c 0.64961,-0.46094 1.31032,-0.90828 1.92636,-1.4143 -0.40044,-0.0757 -0.79393,0.17092 -1.19007,0.22588 -1.69201,0.42379 -3.45168,0.6903 -5.19724,0.52318 -0.63445,-0.0647 -1.36313,-0.30207 -1.63987,-0.9321 -0.19724,-0.51757 0.10472,-1.08708 0.5406,-1.37728 0.87591,-0.67732 1.94647,-1.02643 2.98149,-1.37931 2.66631,-0.85214 5.42974,-1.34697 8.19042,-1.77774 0.66774,-0.1054 1.35024,-0.15525 1.99992,-0.34824 0.81887,-0.32315 1.3519,-1.06437 1.94839,-1.67337 1.08763,-1.20266 2.22161,-2.36906 3.2251,-3.64369 0.21505,-0.37158 -0.31881,0.0184 -0.44924,0.0569 -1.71363,0.85818 -3.4577,1.69375 -5.32774,2.15267 -1.42906,0.36432 -2.92835,0.57985 -4.39775,0.36308 -0.46178,-0.0723 -0.99589,-0.32209 -1.07232,-0.83682 -0.075,-0.57834 0.4037,-1.03069 0.82445,-1.34835 1.3679,-1.01774 2.98537,-1.61725 4.57113,-2.20309 2.25276,-0.80398 4.55475,-1.47569 6.89122,-1.98847 0.61764,-0.14256 1.25481,-0.20882 1.86121,-0.39378 0.37476,-0.11474 0.53021,-0.48299 0.72246,-0.78544 1.1406,-1.84426 2.24583,-3.71538 3.19419,-5.66688 0.11832,-2.34599 0.30169,-4.6941 0.7321,-7.00605 0.0976,-0.23164 0.0823,-0.69816 -0.25236,-0.39456 -1.44285,1.02873 -2.9529,1.96447 -4.51413,2.80434 -1.50395,0.81226 -3.02285,1.60976 -4.62635,2.20998 -0.33108,0.2926 0.43709,0.40669 0.6178,0.57316 0.3951,0.21478 0.82446,0.44192 1.04775,0.85217 0.0264,0.45909 -0.42341,0.74125 -0.64438,1.09554 -2.01182,2.38223 -4.39398,4.44696 -7.00525,6.14745 -2.39056,1.52517 -5.07515,2.56904 -7.85394,3.1212 -2.04429,0.4244 -4.12702,0.66996 -6.21547,0.69741 -1.69976,0.036 -3.404,0.0281 -5.09897,-0.11394 -0.466074,-0.0519 -0.932107,-0.1257 -1.402432,-0.11656 0.342945,0.63417 0.869619,1.14171 1.270567,1.73734 1.933125,2.64268 3.489045,5.55179 4.721575,8.5818 0.38192,0.96749 0.71796,1.9521 1.06296,2.93311 2.02364,0.12559 4.04879,0.32757 6.03285,0.7547 0.47844,0.0489 0.83464,-0.35629 1.23135,-0.55781 0.43722,-0.28155 0.86572,-0.5773 1.29362,-0.87212 z m 13.85048,-1.18594 c 0.90716,-0.40948 1.38634,-1.35781 1.74637,-2.23253 0.44183,-1.14601 0.71657,-2.36107 0.79789,-3.58661 0.0791,-1.96138 0.0307,-3.92667 -0.0815,-5.88566 -0.0335,-0.40742 -0.0851,-0.81352 -0.15971,-1.21551 -1.01266,1.5944 -1.99994,3.21525 -2.7347,4.96016 -0.71278,1.65705 -1.29641,3.40666 -1.39105,5.22045 -0.0284,0.82185 0.0193,1.71871 0.51823,2.40661 0.29159,0.3728 0.80183,0.67176 1.24126,0.35758 l 0.0633,-0.0245 z m -14.25462,-0.78541 c 2.3945,-0.53792 4.73643,-1.49899 6.64621,-3.06478 0.18111,-0.1283 0.21334,-0.26963 -0.0499,-0.22037 -1.30381,0.20157 -2.60137,0.45394 -3.89643,0.70952 -1.98567,0.40754 -3.96993,0.88191 -5.85339,1.64291 -0.47701,0.22137 -1.00392,0.39845 -1.38258,0.77624 -0.19437,0.39174 0.42878,0.44446 0.69054,0.47196 1.16723,0.0174 2.33816,-0.0685 3.49155,-0.25079 0.11829,-0.0199 0.23632,-0.0414 0.354,-0.0647 z m 6.79605,-8.52426 c 2.09939,-0.5076 4.13437,-1.32021 5.94873,-2.5001 0.83027,-0.51723 1.67545,-1.02745 2.41796,-1.66646 0.11066,-0.31564 -0.42077,-0.008 -0.5963,-0.0241 -2.8506,0.62062 -5.63843,1.51422 -8.34173,2.60785 -0.93777,0.40267 -1.88888,0.80068 -2.73914,1.37131 -0.28545,0.11644 -0.4614,0.58834 -0.0172,0.57845 0.83497,-0.034 1.67405,-0.0731 2.50138,-0.20985 0.27695,-0.0437 0.55284,-0.0957 0.8263,-0.15708 z M 99.320259,183.55603 c 0.401224,-0.18937 0.983281,-0.29038 1.090671,-0.79744 0.41371,-0.99481 1.18341,-1.7778 1.89333,-2.56755 1.69304,-1.80919 3.537,-3.47423 5.46209,-5.03244 4.27963,-3.42478 9.19205,-6.12438 14.50179,-7.55069 1.837,-0.50104 3.71296,-0.88585 5.61141,-1.04733 0.21043,0.0459 0.91387,-0.0336 0.46149,-0.2801 -0.78204,-0.53662 -1.64583,-0.94044 -2.42871,-1.47686 -2.39387,-1.53955 -4.67551,-3.25905 -6.7904,-5.1646 -0.58315,-0.53366 -1.12166,-1.11531 -1.68649,-1.66601 -0.16407,0.0399 0.19242,0.45847 0.24184,0.63887 0.37714,0.72997 0.7768,1.47323 0.90808,2.29395 -0.0416,0.45093 -0.59422,0.53425 -0.95243,0.62174 -1.40921,0.28522 -2.84271,0.4303 -4.27299,0.56282 -3.89593,0.3229 -7.88886,0.13404 -11.63399,-1.06145 -0.80297,-0.24833 -1.5693,-0.60216 -2.364883,-0.8685 -0.262339,0.17167 0.118527,0.60738 0.149168,0.87212 0.857925,2.28907 1.415695,4.69944 1.576815,7.14078 0.023,0.41841 0.0481,0.84197 0.16937,1.24565 0.36801,0.21551 0.81233,0.0378 1.21259,0.0571 1.52767,-0.11524 3.05369,-0.30044 4.55758,-0.58449 0.32787,-0.26388 0.93634,-0.26794 0.93444,0.27276 -0.0406,0.40208 -0.4493,0.58593 -0.80123,0.64622 -1.02395,0.24318 -2.0735,0.35437 -3.11472,0.49628 -0.97238,0.1124 -1.94907,0.1821 -2.9259,0.24215 0.029,1.48237 -0.27443,2.94347 -0.52574,4.39699 -0.49981,2.55234 -1.283917,5.04588 -2.270261,7.45074 -0.267017,0.62139 -0.559327,1.23277 -0.787409,1.87016 0.373641,-0.006 0.663083,-0.29521 1.013556,-0.39381 0.255318,-0.10961 0.512454,-0.21534 0.770933,-0.31703 z M 85.40886,181.87841 c -0.249914,-2.50805 0.04393,-5.03448 0.48952,-7.50371 0.265729,-1.39987 0.620627,-2.78204 1.041418,-4.14308 0.056,-0.30295 0.409335,-0.86605 -0.160783,-0.84431 -1.046884,-0.23021 -2.093483,-0.51969 -3.169994,-0.55277 -0.440952,0.0694 -0.738279,0.45272 -1.150328,0.59987 -0.574564,0.26075 -1.214628,0.51639 -1.54341,1.09383 -0.764551,1.1301 -1.532728,2.26227 -2.43833,3.28629 -0.684368,0.78665 -1.420736,1.52603 -2.109671,2.30857 -0.0839,0.40029 0.563807,0.4265 0.787758,0.66472 2.496201,1.41944 4.826684,3.12489 6.973705,5.02949 0.458109,0.42228 0.900813,0.86255 1.386861,1.25337 -0.0089,-0.3994 -0.06661,-0.79537 -0.106746,-1.19227 z m -14.506256,-2.33758 c 2.560833,-1.76064 4.888033,-3.85331 6.966461,-6.16092 2.012626,-2.28077 3.549936,-4.95755 4.61563,-7.80154 1.326386,-3.50694 2.028223,-7.21924 2.421048,-10.9383 0.166916,-1.71089 0.153456,-3.43217 0.109742,-5.1484 -0.05984,-0.32093 0.07775,-0.92042 0.505406,-0.6193 0.357596,0.2805 0.569552,0.70046 0.884538,1.02454 1.134692,1.29182 2.43354,2.42683 3.737991,3.5425 1.38371,1.16534 2.831873,2.25908 4.359674,3.22776 0.317191,-0.14047 0.551216,-0.52113 0.842203,-0.74661 0.308939,-0.27605 0.632246,-0.56892 1.030256,-0.70438 0.454223,-0.006 0.572978,0.54794 0.794089,0.85231 0.547317,0.96498 1.026918,1.96594 1.53779,2.9502 1.952428,0.92373 4.014188,1.6232 6.142238,2.00563 3.03385,0.56809 6.14446,0.56136 9.20956,0.28643 1.16183,-0.0915 2.32796,-0.21269 3.46869,-0.4438 0.41208,-0.17234 0.11458,-0.61158 -0.003,-0.88447 -0.55782,-1.19063 -1.31626,-2.27209 -2.04643,-3.36073 -3.4481,-4.98609 -7.78891,-9.41739 -12.96731,-12.60744 -2.29891,-1.39289 -4.752432,-2.53302 -7.297033,-3.39838 -0.980785,-0.31567 -1.982467,-0.61027 -3.013365,-0.69406 -0.463772,-0.0292 -0.909339,0.11306 -1.347073,0.24188 -0.302636,0.10169 -1.10756,0.19535 -0.892797,-0.33557 0.328791,-0.37576 0.853734,-0.47232 1.303241,-0.63886 0.690644,-0.18895 1.349454,-0.46875 1.986775,-0.79236 2.082295,-1.02134 4.084722,-2.20504 6.000362,-3.5115 2.55844,-1.78634 4.92206,-3.86839 6.94107,-6.25107 1.02544,-1.23867 1.89023,-2.60345 2.6624,-4.01145 1.31067,-2.47414 2.18919,-5.15 2.92674,-7.84281 0.2882,-1.09443 0.52878,-2.20186 0.70551,-3.31989 -0.40985,-0.14641 -0.84707,0.007 -1.26627,0.0272 -2.5257,0.34221 -4.96778,1.10936 -7.3818,1.90263 -4.424399,1.50753 -8.643337,3.68528 -12.296506,6.61584 -2.638671,2.08547 -5.043525,4.50183 -6.924109,7.29972 -0.318797,0.50288 -0.627987,1.02169 -0.843621,1.57619 -0.02289,0.39263 -0.152472,1.12803 -0.709494,0.82359 -0.469164,-0.22997 -0.318389,-0.80791 -0.35904,-1.22777 -0.0081,-1.6438 -0.302421,-3.26978 -0.633067,-4.87481 -0.601869,-2.72095 -1.410774,-5.4001 -2.46195,-7.98194 -0.458478,-1.12441 -1.00573,-2.21069 -1.609108,-3.26352 -0.412353,-0.87399 -0.980854,-1.66196 -1.540813,-2.44586 -2.197051,-2.98993 -5.04929,-5.44736 -8.156545,-7.45163 -1.155504,-0.75169 -2.345713,-1.45421 -3.567689,-2.08998 -0.451218,-0.19782 -0.526387,0.36539 -0.602821,0.6701 -0.411423,1.63397 -0.331125,3.3334 -0.376776,5.00358 -0.01738,2.06517 -0.01812,4.13324 0.109786,6.19512 0.148008,1.53116 0.416064,3.04875 0.717504,4.55639 0.896372,4.28998 2.495845,8.44859 4.836336,12.1606 0.773527,1.19285 1.611396,2.356 2.610167,3.37179 0.308919,0.30722 0.658873,0.57002 1.019952,0.81079 0.389528,0.41301 -0.245767,0.77478 -0.612844,0.51894 -0.403874,-0.18917 -0.830757,-0.31418 -1.272564,-0.37667 -1.598527,-0.2614 -3.228843,-0.18764 -4.837664,-0.0764 -5.228573,0.42423 -10.325802,2.04997 -14.950111,4.5024 -2.82069,1.52234 -5.464539,3.35874 -7.959407,5.36688 -0.847772,0.68926 -1.670313,1.41828 -2.376066,2.25533 -0.425355,0.2645 -0.116172,0.77738 0.294254,0.81285 3.124862,1.53467 6.418974,2.76872 9.851143,3.39892 1.968892,0.36733 3.981428,0.53215 5.981855,0.38763 3.756998,-0.24906 7.42166,-1.26872 10.93183,-2.59194 1.639859,-0.63055 3.263275,-1.32217 4.795422,-2.18558 0.740151,-0.40554 1.353241,-1.03569 2.159006,-1.31884 0.362002,-0.21954 0.644372,0.2426 0.319423,0.50385 -0.565837,0.60688 -1.341962,1.00023 -1.829965,1.68717 -1.172897,1.56105 -2.003079,3.34599 -2.744339,5.14333 -1.71457,4.22354 -2.649117,8.75735 -2.76836,13.31326 -0.105132,3.61251 0.151724,7.24178 0.835167,10.79223 0.195667,0.89617 0.378479,1.80909 0.75263,2.65001 0.288556,0.49041 0.768008,-0.11513 1.100334,-0.26088 0.06053,-0.04 0.121173,-0.08 0.181594,-0.1199 z m 9.769918,-33.52319 c -0.358284,-0.30789 -0.587764,-0.86739 -0.303479,-1.29827 0.226357,-0.4461 0.775988,-0.82197 1.277739,-0.58946 0.489626,0.19611 0.879309,0.69663 0.81598,1.24139 0.0048,0.47382 -0.339769,0.93094 -0.819651,1.00047 -0.372368,0.11145 -0.748072,-0.0465 -0.970589,-0.35413 z m -4.145868,-0.0314 c -0.544033,-0.51178 -0.293374,-1.55862 0.437579,-1.74757 0.608618,-0.19663 1.318036,0.2704 1.356394,0.91491 0.07821,0.74222 -0.784497,1.37871 -1.468497,1.06472 -0.123268,-0.0531 -0.235554,-0.13224 -0.325476,-0.23206 z m 7.328594,-1.88411 c -0.430031,-0.1699 -0.805395,-0.55956 -0.911091,-1.01251 -0.07773,-0.50264 0.190878,-1.11068 0.731363,-1.2094 0.764259,-0.20929 1.600354,0.49376 1.508296,1.28485 -0.04068,0.48044 -0.453693,0.85909 -0.921718,0.92291 -0.133494,0.0272 -0.271915,0.0348 -0.40685,0.0142 z m -13.941741,-2.43166 c -0.374662,-0.32171 -0.395272,-0.93715 -0.06775,-1.29991 0.32627,-0.46031 1.050845,-0.66238 1.501173,-0.26042 0.595044,0.48459 0.436403,1.61186 -0.329331,1.8313 -0.379598,0.13215 -0.827508,0.019 -1.104093,-0.27097 z m 6.520007,-0.25884 c -0.531888,-0.17412 -0.833323,-0.86722 -0.518571,-1.35353 0.225634,-0.4137 0.72369,-0.82986 1.215165,-0.60665 0.40335,0.12214 0.800284,0.44488 0.77502,0.90414 0.04381,0.57423 -0.413342,1.16902 -1.014854,1.15061 -0.156663,8.1e-4 -0.312911,-0.0333 -0.45676,-0.0946 z m 7.747815,-5.23589 c -0.381243,-0.32408 -0.483001,-0.94529 -0.153073,-1.34203 0.210768,-0.36098 0.630392,-0.50922 1.030323,-0.46217 0.49198,0.005 1.021984,0.31232 1.090981,0.8356 0.128344,0.57828 -0.251666,1.24145 -0.857812,1.33156 -0.400347,0.0797 -0.829275,-0.0718 -1.110419,-0.36296 z m -5.930949,-2.18185 c -0.542864,-0.55629 -0.384316,-1.66348 0.381101,-1.93664 0.710045,-0.29164 1.534327,0.37789 1.491109,1.12151 0.0015,0.6861 -0.69978,1.32755 -1.388583,1.11061 -0.184269,-0.0516 -0.353532,-0.15521 -0.483627,-0.29548 z m 9.514396,33.95933 c 0.663512,-1.65496 1.505963,-3.23091 2.359343,-4.79396 1.116702,-1.99597 2.428664,-3.87505 3.826763,-5.68267 0.318221,-0.2951 -0.375411,-0.41957 -0.543333,-0.63591 -2.281597,-1.55946 -4.443027,-3.2972 -6.420516,-5.2292 -0.397323,-0.38029 -0.792457,-0.76287 -1.18986,-1.14308 0.0212,1.7252 -0.03125,3.45351 -0.253057,5.1661 -0.390283,3.31252 -1.097591,6.59367 -2.190745,9.74698 -0.104721,0.32725 -0.201062,0.65758 -0.274619,0.99336 0.129006,0.45755 0.297234,1.00503 0.715403,1.26723 0.442037,0.15562 0.908851,0.22993 1.363245,0.34468 0.738117,0.16121 1.476089,0.35282 2.228981,0.4225 0.223759,-0.0288 0.317225,-0.27006 0.378395,-0.45603 z m -21.02476,-5.0518 c 0.352148,0.0377 1.112405,-0.19939 0.686323,-0.63788 -0.375986,-0.29846 -0.854708,-0.42464 -1.289762,-0.61446 -2.186896,-0.85174 -4.443105,-1.61477 -6.791616,-1.84159 -0.808427,-0.0671 -1.654187,-0.0906 -2.425236,0.19578 -0.523282,0.21515 -0.402776,0.85331 -0.03929,1.15914 0.62082,0.68011 1.517483,1.01065 2.372311,1.29048 1.226072,0.38648 2.517314,0.49116 3.796513,0.49236 1.23013,0.0278 2.462404,0.0404 3.690755,-0.0438 z m 1.389478,-3.57885 c 0.08173,-0.46949 0.215433,-1.01907 -0.122076,-1.42458 -0.8182,-1.3064 -1.676999,-2.59121 -2.626107,-3.80631 -0.528541,-0.61585 -1.081711,-1.23364 -1.751335,-1.6961 -0.381789,0.0494 -0.120541,0.65032 -0.121312,0.92928 0.191081,0.96642 0.694651,1.82869 1.115884,2.70743 0.527415,1.04006 1.16927,2.02243 1.940498,2.89861 0.377961,0.45925 0.76226,0.91895 1.219631,1.3023 0.312932,-0.16967 0.23912,-0.61841 0.344817,-0.91063 z m -2.844043,-0.23561 c -0.541106,-0.92091 -1.201533,-1.77055 -1.663225,-2.738 -0.593422,-1.14069 -1.176954,-2.35098 -1.191123,-3.66423 -0.041,-0.26957 0.109916,-0.91094 -0.363027,-0.7489 -0.409246,0.16779 -0.84854,0.19205 -1.276189,0.29 -0.476538,0.22453 -0.03089,0.88641 -0.04882,1.29087 0.195227,0.88226 0.302107,1.77993 0.377828,2.67943 1.289524,1.02284 2.616173,2.00023 3.990082,2.90694 0.0481,0.0361 0.154182,0.0721 0.174478,-0.0161 z m 4.287502,-4.81851 c 0.67908,-1.74527 1.4812,-3.44179 2.352683,-5.09854 0.170726,-0.30326 0.353926,-0.59927 0.539958,-0.89332 -1.002039,0.37681 -1.923553,0.93655 -2.929478,1.30518 -1.617703,0.66196 -3.273719,1.22515 -4.93897,1.75426 -0.514416,0.0606 0.06697,0.45203 0.21043,0.63468 0.765749,0.77539 1.489267,1.59315 2.12423,2.48006 0.603908,0.82292 1.157728,1.6808 1.735902,2.52164 0.27858,-0.90886 0.582042,-1.81003 0.905245,-2.70396 z m -10.470144,1.73873 c -0.955129,-0.74053 -2.018114,-1.32496 -3.052921,-1.94385 -1.095947,-0.63329 -2.227016,-1.26516 -3.485414,-1.50113 -1.232923,-0.26147 -2.483714,-0.43606 -3.706162,-0.74672 -0.344585,-0.0695 -0.779583,-0.16533 -1.052287,0.12055 -0.12514,0.40876 0.370858,0.7043 0.605903,0.97996 1.52599,1.32227 3.487373,1.96509 5.399825,2.49799 1.719057,0.44439 3.486414,0.79651 5.269644,0.74777 0.117726,0.002 0.104684,-0.11923 0.02141,-0.15457 z m 0.721998,-2.2021 c -0.159171,-0.40575 -0.09034,-1.06442 -0.482047,-1.27897 -0.347375,-0.0273 -0.795238,0.0158 -1.076781,0.13961 0.463299,0.78951 0.996159,1.54373 1.611277,2.22424 0.273445,-0.22412 -0.05569,-0.71624 -0.04324,-1.04157 l -0.0092,-0.0433 z m -17.332803,-8.99399 c 0.394873,-0.36344 -0.373177,-0.12331 -0.402423,0.12839 -0.0229,0.2658 0.354782,-0.0502 0.402423,-0.12839 z m 83.686456,-2.09235 c 1.21899,-2.06262 2.3785,-4.18017 3.17651,-6.44581 0.12155,-0.35267 0.23698,-0.71512 0.24585,-1.09131 -0.35311,-0.27298 -0.65071,0.31501 -0.92687,0.4871 -1.53861,1.49382 -2.64979,3.36776 -3.54502,5.30123 -0.37384,0.82695 -0.70362,1.67583 -0.9649,2.54462 -0.0301,0.43998 0.48091,0.62026 0.81632,0.73617 0.36792,0.0169 0.44848,-0.40865 0.64064,-0.63697 0.19119,-0.29496 0.37561,-0.59425 0.55747,-0.89503 z m -5.22355,-0.71408 c -0.39387,-1.27758 -0.96041,-2.49571 -1.57319,-3.68114 -0.56086,-1.0037 -1.22866,-1.98513 -2.14977,-2.69143 -0.50125,-0.35627 -1.19545,-0.59548 -1.78387,-0.31631 -0.55373,0.37323 -0.64803,1.11174 -0.61194,1.72938 0.0839,1.08997 0.53939,2.11269 1.05793,3.06063 0.15101,0.25078 0.29648,0.53587 0.6052,0.60797 1.22987,0.5229 2.51993,0.88654 3.76075,1.38187 0.19686,-0.005 0.89705,0.57788 0.69489,-0.091 z m -75.439796,-0.46863 c -0.357817,-0.63875 -0.858596,-1.1816 -1.317299,-1.74783 -1.210949,-1.38539 -2.701176,-2.54764 -4.390214,-3.28956 -0.509016,-0.21157 -1.060868,-0.36845 -1.617113,-0.31268 -0.23228,0.36154 0.04842,0.79119 0.275337,1.08196 1.230931,1.51717 2.899979,2.61098 4.634257,3.4726 0.744653,0.35095 1.52072,0.64008 2.317413,0.84696 0.03634,0.01 0.105519,0.002 0.09762,-0.0514 z m 1.35085,-1.92482 c 0.477839,-2.22336 0.6773,-4.53505 0.325236,-6.7913 0.0022,-0.2499 -0.308959,-0.48116 -0.377755,-0.12519 -0.684039,1.42217 -0.733269,3.03767 -0.743741,4.58635 0.01017,0.93274 0.03949,1.88615 0.330421,2.77932 0.304009,0.40727 0.424442,-0.20604 0.465839,-0.44914 z m 3.59174,-0.35585 c -0.09897,-0.36554 -0.407378,0.25146 -0.04478,0.0951 0.02772,-0.0232 0.04531,-0.0587 0.04478,-0.0951 z m 74.630156,-7.59542 c 1.49532,-2.0202 2.96155,-4.0803 4.10275,-6.32589 0.25786,-0.52115 0.51624,-1.06162 0.56828,-1.6489 -0.34305,-0.32939 -0.76563,0.17738 -1.05992,0.3652 -1.96952,1.65656 -3.44809,3.84782 -4.43352,6.21415 -0.4109,1.01216 -0.74373,2.06354 -0.91206,3.14447 -0.0911,0.22494 0.0266,0.50876 0.22218,0.21046 0.50066,-0.65477 1.02363,-1.29401 1.51229,-1.95949 z m -2.88681,-1.57925 c -0.12153,-2.62342 -0.22933,-5.302 -1.10827,-7.80328 -0.23919,-0.66565 -0.53301,-1.34335 -1.04414,-1.84648 -0.37269,-0.36384 -0.91559,-0.10043 -1.07752,0.33524 -0.45904,0.86894 -0.38412,1.89788 -0.27966,2.84258 0.2941,2.29577 1.2751,4.42087 2.26627,6.48664 0.3526,0.70968 0.69692,1.42717 1.09729,2.11048 0.30657,0.24495 0.12063,-0.5497 0.17941,-0.73569 4.6e-4,-0.46336 -0.0188,-0.92649 -0.0334,-1.38949 z m -81.741916,1.13362 c -1.252667,-1.07648 -2.700864,-1.91556 -4.222328,-2.55025 -0.722965,-0.27997 -1.515448,-0.49352 -2.292752,-0.36113 -0.40487,0.28507 0.284872,0.66439 0.514817,0.83489 1.290052,0.8377 2.77843,1.27793 4.202606,1.82574 0.719976,0.26125 1.439406,0.52762 2.178539,0.73069 0.07311,-0.17608 -0.296333,-0.33768 -0.380882,-0.47994 z m 1.0499,-2.31992 c -0.265818,-1.40885 -0.697627,-2.83109 -1.556748,-3.9981 -0.21455,-0.267 -0.52001,-0.60651 -0.891242,-0.53485 -0.388193,0.26196 -0.162483,0.81154 -0.101569,1.18756 0.415685,1.58385 1.229576,3.03163 2.135772,4.38323 0.158783,0.14511 0.353418,0.65403 0.531233,0.51577 0.109433,-0.34213 -0.02645,-0.70515 -0.04039,-1.05465 -0.02279,-0.16675 -0.04852,-0.3331 -0.07706,-0.49896 z m 87.540726,-9.82411 c 1.51402,-1.24301 2.95609,-2.60195 4.10985,-4.19252 0.25783,-0.36519 0.52521,-0.75951 0.558,-1.21914 -0.37128,-0.27771 -0.81639,0.10213 -1.17007,0.24786 -1.3686,0.78424 -2.57263,1.83567 -3.62939,3.00085 -1.01634,1.15505 -1.93805,2.39779 -2.72712,3.71895 -0.10706,0.19694 -0.42024,0.77454 0.0307,0.51277 0.98996,-0.62015 1.914,-1.34212 2.82805,-2.06877 z m -3.94172,-0.75912 c 0.28821,-2.10506 0.35715,-4.24376 0.17498,-6.36115 -0.11624,-1.00573 -0.36211,-2.02697 -0.90558,-2.89086 -0.25511,-0.42337 -0.79755,-0.24261 -0.93397,0.17034 -0.30186,0.57607 -0.41971,1.23183 -0.49294,1.87215 -0.13345,1.42718 -0.0523,2.86604 0.0874,4.2895 0.17601,1.5055 0.60538,2.96428 1.00207,4.4224 0.13398,0.45372 0.2845,0.90312 0.46748,1.33961 0.31015,-0.92074 0.4458,-1.88646 0.60058,-2.84199 z m 5.35773,-6.58878 c 1.5718,-1.03771 3.08685,-2.1691 4.48801,-3.42885 0.68198,-0.63328 1.31046,-1.32821 1.83326,-2.09908 0.0531,-0.43643 -0.51465,0.0146 -0.71657,0.089 -1.29416,0.7056 -2.42089,1.66958 -3.49537,2.66886 -1.0329,0.96458 -2.05179,1.94847 -2.99255,3.00375 -0.13097,0.14644 -0.41433,0.58653 -0.0385,0.34761 0.31306,-0.18365 0.61075,-0.39331 0.92176,-0.58127 z m -2.24045,-1.31935 c 0.62482,-2.22556 1.08197,-4.52829 1.01942,-6.84962 -0.0447,-0.94787 -0.21024,-1.92432 -0.6924,-2.75229 -0.33389,-0.34402 -0.73592,0.0447 -0.89228,0.36383 -0.61756,0.92242 -0.78811,2.06001 -0.76642,3.14953 -0.0189,1.61169 -0.057,3.23915 0.25932,4.82829 0.15599,0.82362 0.32112,1.64898 0.52623,2.46039 0.26438,0.16468 0.28657,-0.48246 0.39083,-0.67243 0.053,-0.17551 0.10424,-0.3518 0.1553,-0.5277 z m 7.59832,-7.59539 c 1.77819,-0.41944 3.54894,-0.96917 5.14635,-1.87115 0.31696,-0.20195 0.62421,-0.44998 0.8423,-0.75169 -1.09934,0.0404 -2.22754,0.10621 -3.27382,0.48919 -1.25238,0.42746 -2.47029,0.97529 -3.59391,1.67636 -0.19361,0.1376 -0.81697,0.5258 -0.40398,0.69647 0.43082,-0.0428 0.8583,-0.1502 1.28306,-0.23918 z m -2.34324,-1.61816 c 1.03743,-1.976593 1.76828,-4.193881 1.62583,-6.450834 -0.0327,-0.382045 -0.078,-0.79473 -0.30796,-1.113233 -0.3673,-0.247678 -0.70146,0.220243 -0.86195,0.509249 -0.63985,1.058138 -0.93318,2.281404 -1.16843,3.482758 -0.2654,1.525232 -0.32508,3.09148 -0.16105,4.62993 0.12412,0.49857 0.35527,-0.1261 0.46252,-0.3025 0.14018,-0.25006 0.27604,-0.50249 0.41104,-0.75537 z m 8.95472,-7.215065 c 1.42971,-0.832854 2.82266,-1.896529 3.58574,-3.402449 0.20358,-0.289799 0.34874,-1.055025 -0.2234,-0.936976 -0.81826,0.321135 -1.48797,0.932452 -2.08588,1.562488 -0.81046,0.902792 -1.52451,1.889544 -2.19353,2.900348 -0.15472,0.176489 -0.29267,0.519948 0.0779,0.340884 0.27798,-0.158831 0.55979,-0.307866 0.83917,-0.464295 z m -1.79045,-1.70246 c 0.32314,-1.601036 0.51499,-3.275558 0.16762,-4.888955 -0.0958,-0.395453 -0.24811,-0.793556 -0.53639,-1.090126 -0.40257,0.211514 -0.35343,0.752677 -0.46815,1.133669 -0.27668,1.723781 -0.0548,3.471325 0.0408,5.200614 0.0352,0.510485 0.0719,1.021919 0.15609,1.52713 0.34211,-0.122561 0.26976,-0.652161 0.42068,-0.943105 0.0803,-0.311339 0.15147,-0.624968 0.21938,-0.939227 z"
       id="path884"
       inkscape:export-filename="/Users/ksergi/Desktop/monoflower bunch.png"
       inkscape:export-xdpi="96"
       inkscape:export-ydpi="96" />
  </g>
</svg>
