<svg width="1000" height="1000" xmlns="http://www.w3.org/2000/svg">
  <defs>
    <radialGradient id="goldenCenter" cx="50%" cy="50%" r="50%">
      <stop offset="0%" style="stop-color:#FFEB3B;stop-opacity:1" />
      <stop offset="100%" style="stop-color:#FBC02D;stop-opacity:1" />
    </radialGradient>
  </defs>

  <!-- Cream background -->
  <rect width="1000" height="1000" fill="#FFFACD"/>

  <!-- Lotus in golden tones -->
  <g>
    <!-- Outer petals in gold -->
    <ellipse cx="500" cy="500" rx="140" ry="190" fill="#D4AF37" transform="rotate(0 500 500)"/>
    <ellipse cx="500" cy="500" rx="140" ry="190" fill="#DAA520" transform="rotate(45 500 500)"/>
    <ellipse cx="500" cy="500" rx="140" ry="190" fill="#D4AF37" transform="rotate(90 500 500)"/>
    <ellipse cx="500" cy="500" rx="140" ry="190" fill="#DAA520" transform="rotate(135 500 500)"/>
    <ellipse cx="500" cy="500" rx="140" ry="190" fill="#D4AF37" transform="rotate(180 500 500)"/>
    <ellipse cx="500" cy="500" rx="140" ry="190" fill="#DAA520" transform="rotate(225 500 500)"/>
    <ellipse cx="500" cy="500" rx="140" ry="190" fill="#D4AF37" transform="rotate(270 500 500)"/>
    <ellipse cx="500" cy="500" rx="140" ry="190" fill="#DAA520" transform="rotate(315 500 500)"/>

    <!-- Inner circle -->
    <circle cx="500" cy="500" r="80" fill="url(#goldenCenter)"/>
    <circle cx="500" cy="500" r="40" fill="#FFD700"/>
  </g>

  <!-- Leaves on sides -->
  <ellipse cx="150" cy="600" rx="50" ry="80" fill="#4CAF50" opacity="0.5" transform="rotate(-40 150 600)"/>
  <ellipse cx="850" cy="400" rx="50" ry="80" fill="#4CAF50" opacity="0.5" transform="rotate(40 850 400)"/>
</svg>