<svg width="1000" height="1000" xmlns="http://www.w3.org/2000/svg">
  <defs>
    <radialGradient id="whiteCenter" cx="50%" cy="50%" r="50%">
      <stop offset="0%" style="stop-color:#FFF9C4;stop-opacity:1" />
      <stop offset="100%" style="stop-color:#FFF59D;stop-opacity:1" />
    </radialGradient>
  </defs>

  <!-- Light blue water background -->
  <rect width="1000" height="1000" fill="#E3F2FD"/>

  <!-- White lotus -->
  <g>
    <!-- Outer petals -->
    <ellipse cx="500" cy="500" rx="150" ry="200" fill="#FFFFFF" transform="rotate(0 500 500)"/>
    <ellipse cx="500" cy="500" rx="150" ry="200" fill="#F5F5F5" transform="rotate(45 500 500)"/>
    <ellipse cx="500" cy="500" rx="150" ry="200" fill="#FFFFFF" transform="rotate(90 500 500)"/>
    <ellipse cx="500" cy="500" rx="150" ry="200" fill="#F5F5F5" transform="rotate(135 500 500)"/>
    <ellipse cx="500" cy="500" rx="150" ry="200" fill="#FFFFFF" transform="rotate(180 500 500)"/>
    <ellipse cx="500" cy="500" rx="150" ry="200" fill="#F5F5F5" transform="rotate(225 500 500)"/>
    <ellipse cx="500" cy="500" rx="150" ry="200" fill="#FFFFFF" transform="rotate(270 500 500)"/>
    <ellipse cx="500" cy="500" rx="150" ry="200" fill="#F5F5F5" transform="rotate(315 500 500)"/>

    <!-- Inner petals in off-white -->
    <ellipse cx="500" cy="500" rx="110" ry="150" fill="#FAFAFA" transform="rotate(22.5 500 500)"/>
    <ellipse cx="500" cy="500" rx="110" ry="150" fill="#FAFAFA" transform="rotate(67.5 500 500)"/>
    <ellipse cx="500" cy="500" rx="110" ry="150" fill="#FAFAFA" transform="rotate(112.5 500 500)"/>
    <ellipse cx="500" cy="500" rx="110" ry="150" fill="#FAFAFA" transform="rotate(157.5 500 500)"/>
    <ellipse cx="500" cy="500" rx="110" ry="150" fill="#FAFAFA" transform="rotate(202.5 500 500)"/>
    <ellipse cx="500" cy="500" rx="110" ry="150" fill="#FAFAFA" transform="rotate(247.5 500 500)"/>
    <ellipse cx="500" cy="500" rx="110" ry="150" fill="#FAFAFA" transform="rotate(292.5 500 500)"/>
    <ellipse cx="500" cy="500" rx="110" ry="150" fill="#FAFAFA" transform="rotate(337.5 500 500)"/>

    <!-- Golden center -->
    <circle cx="500" cy="500" r="70" fill="url(#whiteCenter)"/>
    <circle cx="500" cy="500" r="35" fill="#FFD700"/>
  </g>

  <!-- Green leaves floating -->
  <ellipse cx="200" cy="800" rx="60" ry="90" fill="#4CAF50" opacity="0.6" transform="rotate(-35 200 800)"/>
  <ellipse cx="800" cy="300" rx="60" ry="90" fill="#4CAF50" opacity="0.6" transform="rotate(35 800 300)"/>
</svg>