<svg width="1000" height="1000" xmlns="http://www.w3.org/2000/svg">
  <defs>
    <radialGradient id="floralCenter" cx="50%" cy="50%" r="50%">
      <stop offset="0%" style="stop-color:#FFE082;stop-opacity:1" />
      <stop offset="100%" style="stop-color:#FFD54F;stop-opacity:1" />
    </radialGradient>
  </defs>

  <!-- Soft pink background -->
  <rect width="1000" height="1000" fill="#FCE4EC"/>

  <!-- Large lotus flower - center -->
  <g>
    <!-- Outer petals -->
    <ellipse cx="500" cy="500" rx="150" ry="200" fill="#E91E63" transform="rotate(0 500 500)"/>
    <ellipse cx="500" cy="500" rx="150" ry="200" fill="#EC407A" transform="rotate(45 500 500)"/>
    <ellipse cx="500" cy="500" rx="150" ry="200" fill="#E91E63" transform="rotate(90 500 500)"/>
    <ellipse cx="500" cy="500" rx="150" ry="200" fill="#EC407A" transform="rotate(135 500 500)"/>
    <ellipse cx="500" cy="500" rx="150" ry="200" fill="#E91E63" transform="rotate(180 500 500)"/>
    <ellipse cx="500" cy="500" rx="150" ry="200" fill="#EC407A" transform="rotate(225 500 500)"/>
    <ellipse cx="500" cy="500" rx="150" ry="200" fill="#E91E63" transform="rotate(270 500 500)"/>
    <ellipse cx="500" cy="500" rx="150" ry="200" fill="#EC407A" transform="rotate(315 500 500)"/>

    <!-- Inner petals -->
    <ellipse cx="500" cy="500" rx="100" ry="140" fill="#F06292" transform="rotate(22.5 500 500)"/>
    <ellipse cx="500" cy="500" rx="100" ry="140" fill="#F06292" transform="rotate(67.5 500 500)"/>
    <ellipse cx="500" cy="500" rx="100" ry="140" fill="#F06292" transform="rotate(112.5 500 500)"/>
    <ellipse cx="500" cy="500" rx="100" ry="140" fill="#F06292" transform="rotate(157.5 500 500)"/>
    <ellipse cx="500" cy="500" rx="100" ry="140" fill="#F06292" transform="rotate(202.5 500 500)"/>
    <ellipse cx="500" cy="500" rx="100" ry="140" fill="#F06292" transform="rotate(247.5 500 500)"/>
    <ellipse cx="500" cy="500" rx="100" ry="140" fill="#F06292" transform="rotate(292.5 500 500)"/>
    <ellipse cx="500" cy="500" rx="100" ry="140" fill="#F06292" transform="rotate(337.5 500 500)"/>

    <!-- Center -->
    <circle cx="500" cy="500" r="60" fill="url(#floralCenter)"/>
    <circle cx="500" cy="500" r="30" fill="#FFF59D"/>
    <circle cx="500" cy="500" r="15" fill="#FFD700"/>
  </g>

  <!-- Small water droplets -->
  <circle cx="300" cy="300" r="8" fill="#FFFFFF" opacity="0.4"/>
  <circle cx="700" cy="250" r="6" fill="#FFFFFF" opacity="0.3"/>
  <circle cx="750" cy="700" r="7" fill="#FFFFFF" opacity="0.35"/>
</svg>