<svg width="1000" height="1000" xmlns="http://www.w3.org/2000/svg">
  <defs>
    <radialGradient id="water" cx="50%" cy="40%" r="60%">
      <stop offset="0%" style="stop-color:#B3E5FC;stop-opacity:1" />
      <stop offset="100%" style="stop-color:#4FC3F7;stop-opacity:1" />
    </radialGradient>
  </defs>

  <!-- Water background -->
  <rect width="1000" height="1000" fill="url(#water)"/>

  <!-- Sky -->
  <rect y="0" width="1000" height="300" fill="#E1F5FE"/>

  <!-- Lotus pond with floating flowers -->
  <g>
    <!-- Large lotus in center -->
    <circle cx="500" cy="600" r="8" fill="#E91E63"/>
    <circle cx="480" cy="580" r="8" fill="#E91E63"/>
    <circle cx="520" cy="580" r="8" fill="#E91E63"/>
    <circle cx="470" cy="610" r="7" fill="#E91E63"/>
    <circle cx="530" cy="610" r="7" fill="#E91E63"/>
    <circle cx="500" cy="570" r="7" fill="#E91E63"/>
    <circle cx="500" cy="600" r="4" fill="#FFD700"/>

    <!-- Lotus leaf -->
    <ellipse cx="500" cy="700" rx="80" ry="100" fill="#4CAF50" opacity="0.6"/>
  </g>

  <!-- Left lotus -->
  <g opacity="0.7">
    <circle cx="250" cy="750" r="6" fill="#E91E63"/>
    <circle cx="235" cy="735" r="6" fill="#E91E63"/>
    <circle cx="265" cy="735" r="6" fill="#E91E63"/>
    <circle cx="250" cy="750" r="3" fill="#FFD700"/>
    <ellipse cx="250" cy="820" rx="60" ry="80" fill="#4CAF50" opacity="0.5"/>
  </g>

  <!-- Right lotus -->
  <g opacity="0.7">
    <circle cx="750" cy="650" r="6" fill="#E91E63"/>
    <circle cx="735" cy="635" r="6" fill="#E91E63"/>
    <circle cx="765" cy="635" r="6" fill="#E91E63"/>
    <circle cx="750" cy="650" r="3" fill="#FFD700"/>
    <ellipse cx="750" cy="720" rx="60" ry="80" fill="#4CAF50" opacity="0.5"/>
  </g>

  <!-- Water ripples -->
  <circle cx="500" cy="600" r="50" fill="none" stroke="#FFFFFF" stroke-width="1" opacity="0.3"/>
  <circle cx="500" cy="600" r="80" fill="none" stroke="#FFFFFF" stroke-width="1" opacity="0.2"/>
</svg>